<?xml version="1.0" standalone="no"?>
<!DOCTYPE svg PUBLIC "-//W3C//DTD SVG 1.1//EN" "http://www.w3.org/Graphics/SVG/1.1/DTD/svg11.dtd" >
<svg>
<metadata>
Created by FontForge 20090914 at Thu Jan 31 13:17:13 2019
 By www-data
Copyright &#231;&#137;&#161;1992 Image Club Graphics, Inc.
</metadata>
<defs>
<font id="Graphik" horiz-adv-x="416" >
  <font-face 
    font-family="Graphik"
    font-weight="5"
    font-stretch="normal"
    units-per-em="1000"
    panose-1="0 0 0 0 0 0 0 0 0 0"
    ascent="800"
    descent="-200"
    x-height="802"
    cap-height="802"
    bbox="-47 -245.001 880 1054"
    underline-thickness="20"
    underline-position="-123"
    unicode-range="U+0020-U+25CA"
  />
<missing-glyph horiz-adv-x="800" 
d="M50 0v800h700v-800h-700zM700 50v700h-600v-700h600z" />
    <glyph glyph-name=".notdef" horiz-adv-x="800" 
d="M50 0v800h700v-800h-700zM700 50v700h-600v-700h600z" />
    <glyph glyph-name="space" unicode=" " horiz-adv-x="264" 
 />
    <glyph glyph-name="exclam" unicode="!" horiz-adv-x="300" 
d="M234 473l-10 -301h-60l-75 72l-4 2l-10 300l10 254l2 2h60l77 -76zM229 0h-60l-75 72l-4 2v60l2 2h60l2 -2l75 -74v-60zM155 546l-10 252h-56l-10 -252l10 -298h56zM150 76v56h-56v-56h56z" />
    <glyph glyph-name="quotedbl" unicode="&#x22;" horiz-adv-x="428" 
d="M348 665l0.000976562 -25c0 -16.667 -2.5 -29.167 -7.5 -37.5s-8.5 -13.5 -10.5 -15.5c-3.33301 -4 -9 -8.66699 -17 -14l-10 -7l-101 100l8 7c16.667 8.66699 25 22 25 40c0 6 -2.33301 11.667 -7 17s-10.334 8 -17.001 8l-2 64h64l75 -77v-60zM202.001 665
l0.000976562 -25c0 -16.667 -2.5 -29.167 -7.5 -37.5s-8.5 -13.5 -10.5 -15.5c-3.33301 -4 -9 -8.66699 -17 -14l-10 -7l-101 100l8 7c16.667 8.66699 25 22 25 40c0 6 -2.33301 11.667 -7 17s-10.334 8 -17.001 8l-2 64h64l75 -77v-60zM269.002 740v57.999h-56l1 -56
c7.33301 0 13.333 -3 18 -9s7 -12.667 7 -20c0 -20 -9 -34.667 -27 -44l-4 -2l21 -22l6 3c7.33301 3.33301 13 7.33301 17 12s8 11.334 12 20.001c2 4.66699 3.33301 11.167 4 19.5s1 13.5 1 15.5v25zM123.002 739.999l-0.000976562 58.002h-56l1 -56
c7.33301 0 13.333 -3 18 -9s7 -12.667 7 -20c0 -20.667 -9 -35.334 -27 -44.001l-4 -2l13 -13l9 -9l5 3c12.667 7.33301 22.334 18 29.001 32c3.33301 7.33301 5 18.666 5 33.999v26z" />
    <glyph glyph-name="numbersign" unicode="#" horiz-adv-x="666" 
d="M621 504h-117l-30 -181h110v-71h-127l-39 -225h-82l40 226h-125l-42 -224h-88l39 224h-107v71h120l33 180h-112v72h125l37 224h87l-36 -224h128l38 225h89l-42 -225h101v-72zM421 504h-126l-31 -181h126z" />
    <glyph glyph-name="dollar" unicode="$" horiz-adv-x="402" 
d="M346 89c0 -12 -2.50195 -22.998 -7.50195 -32.998s-12.167 -20 -21.5 -30c-5.33301 -5.33301 -14.333 -11.666 -27 -18.999l-18 -9v-74h-62l-77 72v76c-18 6 -34 18 -48 36c-6.66699 9.33301 -11.667 18.166 -15 26.499s-5 18.166 -5 29.499v179h64v-164
c0 -12 3.5 -22.5 10.5 -31.5s16.167 -13.5 27.5 -13.5c10.667 0 19.834 4.5 27.501 13.5s11.5 19.5 11.5 31.5v85v20c0 18 -1.33301 36.333 -4 55c-5.33301 35.333 -21 70.666 -47 105.999c-47.333 64.667 -71.666 98 -72.999 100c-6 10 -10.167 20.833 -12.5 32.5
s-3.5 23.5 -3.5 35.5v25v71c0 17.333 1.83301 31.333 5.5 42s11.5 21 23.5 31c8 6 14 10.333 18 13c7.33301 4.66699 14 7 20 7v74h64l75 -75v-63l46 -51c4.66699 -6 8.5 -11.333 11.5 -16s6 -11 9 -19s4.83301 -14.833 5.5 -20.5s1 -14.167 1 -25.5v-112h-60l-75 70
c0 -16 6.66699 -34.667 20 -56l67 -99c22.667 -35.333 38 -71.666 46 -108.999c1.33301 -4.66699 2 -13.834 2 -27.501s0.333008 -24.5 1 -32.5v-16v-135zM207.998 179.002c0 -12 -3.83301 -22.833 -11.5 -32.5s-17.167 -14.5 -28.5 -14.5s-21 4.66699 -29 14
s-12 20.333 -12 33v161l81 -74v-87zM266.998 568.002l-0.00195312 140.997c0 29.333 -12 53 -36 71l-13 10c-7.33301 4.66699 -15.666 7.66699 -24.999 9v73h-56v-74c-8 0 -14.833 -1.66699 -20.5 -5s-12.667 -8.66602 -21 -15.999s-14.666 -16.666 -18.999 -27.999
s-6.5 -24.666 -6.5 -39.999v-71v-25c0 -14 0.833008 -25.5 2.5 -34.5s6.16699 -19.5 13.5 -31.5c11.333 -20 29.333 -45.667 54 -77c38 -48.667 60 -92.334 66 -131.001c1.33301 -9.33301 2.33301 -21.666 3 -36.999s1 -28 1 -38v-85
c0 -13.333 -4.16699 -24.833 -12.5 -34.5s-18.5 -14.5 -30.5 -14.5s-22 5 -30 15s-12 21.333 -12 34v160h-56v-175c0 -10 0.833008 -18.167 2.5 -24.5s7.66699 -16.833 18 -31.5s25.833 -25.334 46.5 -32.001l1 -76h56v75c26 5.33301 45.667 19.333 59 42
c6 10 9.83301 17.667 11.5 23s2.5 13.333 2.5 24v102v30c0 6.66699 -0.333008 14.5 -1 23.5s-1.33398 16.5 -2.00098 22.5c-5.33301 36.667 -20 71.834 -44 105.501l-71 99.5c-8.66699 14 -14.5 26.5 -17.5 37.5s-4.5 22.833 -4.5 35.5v18v56
c0 13.333 3.83301 24.833 11.5 34.5s17.834 14.5 30.501 14.5c12 0 22.167 -4.83301 30.5 -14.5s12.5 -21.167 12.5 -34.5v-126h56z" />
    <glyph glyph-name="percent" unicode="%" horiz-adv-x="764" 
d="M341 515c0 -26 -9.83301 -47.667 -29.5 -65s-43.167 -26 -70.5 -26c-17.333 0 -29.5 0.666992 -36.5 2s-14.5 5.66602 -22.5 12.999l-72 70c-14.667 8 -26.334 19 -35.001 33s-13 29.333 -13 46v121c0 26.667 9.83301 48.834 29.5 66.501s43.834 26.5 72.501 26.5
c21.333 0 40.333 -5 57 -15s29.334 -24 38.001 -42l55 -55c9.33301 -9.33301 16.166 -20.333 20.499 -33s6.5 -25 6.5 -37v-105zM586 726l-320 -726h-60l-45 72h-4l322 729l65 1l-2 -4zM701 91c0 -26 -9.83301 -47.667 -29.5 -65s-43.167 -26 -70.5 -26
c-17.333 0 -29.5 0.666992 -36.5 2s-14.5 5.66602 -22.5 12.999l-75 72c-30 18 -45 43.667 -45 77v121c0 26.667 9.83301 48.834 29.5 66.501s43.834 26.5 72.501 26.5c42 0 74.333 -18.333 97 -55l53 -57c9.33301 -9.33301 16.166 -20.333 20.499 -33s6.5 -25 6.5 -37v-105
zM263 588v121c0 25.333 -9.83301 46.5 -29.5 63.5s-42.834 25.5 -69.501 25.5c-26 0 -48.833 -8.5 -68.5 -25.5s-29.5 -38.167 -29.5 -63.5v-121c0 -25.333 9.83301 -46.5 29.5 -63.5s42.834 -25.5 69.501 -25.5c26 0 48.833 8.5 68.5 25.5s29.5 38.167 29.5 63.5zM538 798
h-55l-320 -722h55zM623 164v121c0 25.333 -9.83301 46.5 -29.5 63.5s-42.834 25.5 -69.501 25.5c-26 0 -48.833 -8.5 -68.5 -25.5s-29.5 -38.167 -29.5 -63.5v-121c0 -25.333 9.83301 -46.5 29.5 -63.5s42.834 -25.5 69.501 -25.5c26 0 48.833 8.5 68.5 25.5
s29.5 38.167 29.5 63.5zM207 603c0 -13.333 -3.83301 -24.833 -11.5 -34.5s-17.834 -14.5 -30.501 -14.5c-12 0 -22.167 4.83301 -30.5 14.5s-12.5 21.167 -12.5 34.5v91c0 13.333 3.83301 24.833 11.5 34.5s17.834 14.5 30.501 14.5c12 0 22.167 -4.83301 30.5 -14.5
s12.5 -21.167 12.5 -34.5v-91zM567 179c0 -13.333 -3.83301 -24.833 -11.5 -34.5s-17.834 -14.5 -30.501 -14.5c-12 0 -22.167 4.83301 -30.5 14.5s-12.5 21.167 -12.5 34.5v91c0 13.333 3.83301 24.833 11.5 34.5s17.834 14.5 30.501 14.5c12 0 22.167 -4.83301 30.5 -14.5
s12.5 -21.167 12.5 -34.5v-91z" />
    <glyph glyph-name="ampersand" unicode="&#x26;" horiz-adv-x="521" 
d="M464 330l-74.001 -0.00195312v-330h-177c-18.667 0 -33 0.5 -43 1.5s-21.167 5.33301 -33.5 13s-25.166 25.167 -38.499 52.5c-15.333 32 -23 62.333 -23 91v10v202v314c0 30.667 2 51.834 6 63.501s10.667 21.834 20 30.501c18.667 16 41.334 24 68.001 24h148l60 -66
v-60h-115h-23c-8 0 -13.667 -0.333008 -17 -1c-5.33301 -0.666992 -10.333 -3.16699 -15 -7.5s-7.83398 -10 -9.50098 -17s-2.5 -16.167 -2.5 -27.5v-18v-155h68v58h66v-58h75l60 -60v-60zM399.999 389.998l0.00195312 56h-75v58h-58v-58h-58h-16
c-8.66699 0 -14.667 0.333008 -18 1c-4.66699 1.33301 -10 4 -16 8c-10 7.33301 -16.5 14.666 -19.5 21.999s-4.5 18.333 -4.5 33v160c0 16.667 1 28.167 3 34.5s5.83301 13 11.5 20s13 11.667 22 14s20.167 3.5 33.5 3.5h110v56h-146c-25.333 0 -47.333 -8 -66 -24
c-10.667 -9.33301 -17.334 -20.666 -20.001 -33.999s-4 -32 -4 -56v-314v-202c0 -20 1.66699 -35.333 5 -46s10.666 -20.667 21.999 -30c7.33301 -6 16 -10.167 26 -12.5s20.667 -3.5 32 -3.5h19h143v314h74zM266.001 126.998l-61.002 0.000976562h-15
c-11.333 0 -18 0.333008 -20 1c-1.33301 0.666992 -4.66602 3.33398 -9.99902 8.00098c-11.333 9.33301 -18.666 18.166 -21.999 26.499s-5 19.833 -5 34.5v113c0 16 0.833008 27.667 2.5 35s6.5 16.666 14.5 27.999c4.66699 6.66699 11.5 11.167 20.5 13.5
s20.5 3.5 34.5 3.5h61v-263zM261.999 130.999l0.000976562 201.001h-20c-14 0 -22 -0.333008 -24 -1c-2.66699 -0.666992 -7.33398 -4.33398 -14.001 -11.001s-10 -22.667 -10 -48v-141h68z" />
    <glyph glyph-name="quotesingle" unicode="'" horiz-adv-x="272" 
d="M202 669l0.000976562 -25c0 -16.667 -2.5 -29.167 -7.5 -37.5s-11.833 -16.5 -20.5 -24.5c-1.33301 -1.33301 -4 -3.33301 -8 -6l-9 -6l-100 100l8 7c16.667 8.66699 25 22 25 40c0 6 -2.33301 11.667 -7 17s-10.334 8 -17.001 8l-2 64h64l74 -77v-60zM124.001 744
l-0.000976562 58.001h-56v-56c6.66699 0 12.667 -3 18 -9s8 -12.667 8 -20c0 -20.667 -9 -35.334 -27 -44.001l-4 -2l13 -13l9 -9l5 3c14.667 8.66699 24.334 19.334 29.001 32.001c2.66699 7.33301 4.16699 17.166 4.5 29.499s0.5 22.5 0.5 30.5z" />
    <glyph glyph-name="parenleft" unicode="(" horiz-adv-x="345" 
d="M283 0h-156l-62 72v730h160l58 -62v-60h-96v-544h38l58 -62v-74zM221 76v56h-96v610h96v56h-152v-722h152z" />
    <glyph glyph-name="parenright" unicode=")" horiz-adv-x="358" 
d="M280 0h-156l-62 72v64h96v544h-33l-63 58v64h160v-4l58 -58v-740zM218 76v722h-152v-56h96v-610h-96v-56h152z" />
    <glyph glyph-name="asterisk" unicode="*" horiz-adv-x="526" 
d="M481 569l-183 19l107 -147l-69 -43l-69 171l-80 -168l-69 38l113 149l-176 -16l-2 81l179 -23l-108 151l71 40l70 -170l74 169l72 -40l-110 -150l177 20z" />
    <glyph glyph-name="plus" unicode="+" horiz-adv-x="618" 
d="M568 225h-224v-226h-77v224h-209v77h211v222h75v-222h224v-75z" />
    <glyph glyph-name="comma" unicode="," horiz-adv-x="269" 
d="M204 -3l0.000976562 -25c0 -16.667 -2.5 -29.167 -7.5 -37.5s-11.833 -16.5 -20.5 -24.5c-1.33301 -1.33301 -4 -3.33301 -8 -6l-9 -6l-101 101l10 5c16 8 24 21.667 24 41c0 6 -2.33301 11.667 -7 17s-10.334 8 -17.001 8l-2 64h64l74 -77v-60zM126.001 72v58.001h-56
v-56c6.66699 0 12.667 -3 18 -9s8 -12.667 8 -20c0 -21.333 -8 -36 -24 -44l-6 -3c2.66699 -4 6.66699 -8.33301 12 -13c2 -1.33301 5 -4 9 -8l5 3c13.333 8 23 18.667 29 32c3.33301 7.33301 5 18.666 5 33.999v26z" />
    <glyph glyph-name="hyphen" unicode="-" horiz-adv-x="468" 
d="M402 232h-272l-79 72v64h276l75 -76v-60zM323 308v56h-268v-56h268z" />
    <glyph glyph-name="period" unicode="." horiz-adv-x="261" 
d="M202 0h-60l-79 72v64h64l75 -76v-60zM123 76v56h-56v-56h56z" />
    <glyph glyph-name="slash" unicode="/" horiz-adv-x="540" 
d="M487 726l-320 -726h-60l-49 72l322 729l65 1zM439 798h-55l-320 -722h55z" />
    <glyph glyph-name="zero" unicode="0" 
d="M347 91c0 -26 -9.83301 -47.6689 -29.5 -65.002s-43.167 -26 -70.5 -26c-14.667 0 -26.334 0.833008 -35.001 2.5s-16.667 5.83398 -24 12.501l-78 72c-28 21.333 -42 47 -42 77v545c0 26.667 9.83301 48.834 29.5 66.501s43.834 26.5 72.501 26.5
c20 0 37.833 -4.16699 53.5 -12.5s29.5 -20.5 41.5 -36.5l6 -6l54 -58c4.66699 -4 8.5 -8.5 11.5 -13.5s5.66699 -11 8 -18s3.5 -13.5 3.5 -19.5c-0.666992 -8 -1 -14 -1 -18v-529zM269 163.998v545c0 25.333 -9.83301 46.5 -29.5 63.5s-42.834 25.5 -69.501 25.5
c-26 0 -48.833 -8.5 -68.5 -25.5s-29.5 -38.167 -29.5 -63.5v-545c0 -25.333 9.83301 -46.5 29.5 -63.5s42.834 -25.5 69.501 -25.5c26 0 48.833 8.5 68.5 25.5s29.5 38.167 29.5 63.5zM211 178.998c0 -12 -3.83301 -22.833 -11.5 -32.5s-17.167 -14.5 -28.5 -14.5
s-21 4.66699 -29 14s-12 20.333 -12 33v515c0 12 3.83301 22.833 11.5 32.5s17.167 14.5 28.5 14.5s21 -4.66699 29 -14s12 -20.333 12 -33v-515z" />
    <glyph glyph-name="one" unicode="1" horiz-adv-x="364" 
d="M288 0l-60 -0.000976562l-79 72v528l-84 78v64h10c13.333 0 23.5 0.833008 30.5 2.5s14.5 5.83398 22.5 12.501c14 10.667 21 22.667 21 36v9h64l75 -76v-726zM209 75.999v722h-56v-5c0 -7.33301 -2 -14.166 -6 -20.499s-9.83301 -12.833 -17.5 -19.5
s-15.167 -10.834 -22.5 -12.501s-18 -2.5 -32 -2.5h-6v-56h84v-606h56z" />
    <glyph glyph-name="two" unicode="2" horiz-adv-x="401" 
d="M342 544v-12.002c0 -19.333 -0.5 -33.333 -1.5 -42s-4.16699 -21 -9.5 -37l-101 -256l-2 -29v-32h24l75 -76v-60h-156l-79 72v124c0 12.667 0.166992 24.667 0.5 36s2.5 25.333 6.5 42c6.66699 26 15.667 54.667 27 86c4 10.667 22 54.667 54 132h-39l-78 72v145
c0 26.667 10.167 48.834 30.5 66.501s44.5 26.5 72.5 26.5c19.333 0 37 -4.5 53 -13.5s30.333 -21.5 43 -37.5l6 -7l47 -53c7.33301 -7.33301 14 -18.333 20 -33c3.33301 -7.33301 5.33301 -14.166 6 -20.499s1 -14.833 1 -25.5v-68zM264 617.998l0.000976562 91.0029
c0 25.333 -9.5 46.5 -28.5 63.5s-42.167 25.5 -69.5 25.5c-26.667 0 -49.834 -8.5 -69.501 -25.5s-29.5 -38.167 -29.5 -63.5v-141h56v126c0 13.333 4.16699 24.833 12.5 34.5s18.5 14.5 30.5 14.5s22 -5 30 -15s12 -21.333 12 -34v-76v-17.5
c0 -5.66699 0.333008 -11.167 1 -16.5c0 -12 -0.5 -21.167 -1.5 -27.5s-3.5 -15.166 -7.5 -26.499l-97 -256c-3.33301 -12.667 -5.33301 -23.334 -6 -32.001s-1 -20.334 -1 -35.001v-11v-120h152v56h-96v62c0 6.66699 -0.166992 13.167 -0.5 19.5s-0.5 12.5 -0.5 18.5
c0 9.33301 1.66699 21.666 5 36.999c9.33301 37.333 25.333 83 48 137c28 67.333 44.5 108.5 49.5 123.5s8 27.667 9 38s1.5 27.166 1.5 50.499z" />
    <glyph glyph-name="three" unicode="3" horiz-adv-x="406" 
d="M340 91c0 -25.333 -9.83203 -46.832 -29.499 -64.499s-42.834 -26.5 -69.501 -26.5c-14.667 0 -26.334 0.833008 -35.001 2.5s-16.667 5.83398 -24 12.501l-80 72c-26.667 21.333 -40 47 -40 77v126h64v-4l76 -70v119l-68 63v64h21h12c12.667 0 21.834 3 27.501 9
s8.5 13.333 8.5 22l-141 71v145c0 26.667 10.167 48.834 30.5 66.501s44.5 26.5 72.5 26.5c16.667 0 33 -3.83301 49 -11.5s31.333 -19.167 46 -34.5l60 -62c3.33301 -3.33301 5.66602 -6 6.99902 -8c2.66699 -4 5.33398 -9.16699 8.00098 -15.5s4.16699 -13.5 4.5 -21.5
s0.5 -16 0.5 -24v-135v-12c0 -14.667 -1.66699 -25.667 -5 -33c-7.33301 -18.667 -24.333 -33.334 -51 -44.001l-7 -3l45 -43c6 -4.66699 10.5 -10.834 13.5 -18.501s4.5 -16.834 4.5 -27.501v-16v-202zM263.001 504.001v205.003c0 25.333 -9.5 46.5 -28.5 63.5
s-42.167 25.5 -69.5 25.5c-26.667 0 -49.834 -8.5 -69.501 -25.5s-29.5 -38.167 -29.5 -63.5v-141h56v126c0 13.333 4.16699 24.833 12.5 34.5s18.5 14.5 30.5 14.5s22 -5 30 -15s12 -21.333 12 -34v-179v-18c0 -6.66699 -0.333008 -11.334 -1 -14.001
c-1.33301 -4.66699 -4.16602 -9.5 -8.49902 -14.5s-9.33301 -8 -15 -9s-14.834 -1.5 -27.501 -1.5h-17v-56h14c12.667 0 22.334 -0.666992 29.001 -2s12.5 -5 17.5 -11s7.5 -14.667 7.5 -26v-17v-167c0 -13.333 -3.83301 -24.833 -11.5 -34.5s-17.834 -14.5 -30.501 -14.5
c-12 0 -22 5 -30 15s-12 21.333 -12 34v107h-56v-122c0 -25.333 9.5 -46.5 28.5 -63.5s42.167 -25.5 69.5 -25.5c26 0 48.833 8.5 68.5 25.5s29.5 38.167 29.5 63.5v203c0.666992 8.66699 1 15 1 19c0 9.33301 -2.16699 17.166 -6.5 23.499s-8.33301 11.166 -12 14.499
s-9.16699 5 -16.5 5l-18 2v5l18 2c8 0 14.667 3 20 9c2.66699 2.66699 5.83398 7 9.50098 13s5.5 14.667 5.5 26v18z" />
    <glyph glyph-name="four" unicode="4" horiz-adv-x="425" 
d="M363 170h-51v-170h-60l-79 72v100h-33l-81 72l76 558h102l75 -76v-446l51 -50v-60zM284 248v56h-51v494h-94l-76 -550h114v-172h56v172h51zM174 305h-45l45 322v-322z" />
    <glyph glyph-name="five" unicode="5" horiz-adv-x="413" 
d="M345 91c0 -25.333 -9.99805 -47 -29.998 -65s-43 -27 -69 -27c-14.667 0 -26.5 0.833008 -35.5 2.5s-17.167 6.16699 -24.5 13.5l-79 72c-14 11.333 -24.333 23 -31 35s-10 26 -10 42v126h64l77 -77v146h-55l-86 73v370h188l73 -74v-61h-124v-127
c19.333 -5.33301 37.333 -17.333 54 -36l7 -6l52 -51c5.33301 -4.66699 10.666 -11.167 15.999 -19.5s8.66602 -15.333 9.99902 -21s2 -12.5 2 -20.5s0.333008 -14.333 1 -19v-276zM267.002 164v291c0 24 -10 44 -30 60s-42.667 24 -68 24c-12.667 0 -25 -5 -37 -15l-6 -5
v223h124v56h-180v-362h56v6c0 12 4.16699 22.5 12.5 31.5s18.166 13.5 29.499 13.5c13.333 0 23.833 -5 31.5 -15s11.5 -22.333 11.5 -37v-256c0 -13.333 -4.16699 -24.833 -12.5 -34.5s-18.5 -14.5 -30.5 -14.5s-22 5 -30 15s-12 21.333 -12 34v107h-56v-122
c0 -25.333 9.5 -46.5 28.5 -63.5s42.167 -25.5 69.5 -25.5c26.667 0 49.834 8.5 69.501 25.5s29.5 38.167 29.5 63.5z" />
    <glyph glyph-name="six" unicode="6" horiz-adv-x="407" 
d="M343 91c0 -25.333 -10.001 -46.998 -30.001 -64.998s-43.333 -27 -70 -27c-15.333 0 -27 0.833008 -35 2.5s-16 6.16699 -24 13.5l-82 76c-8 6.66699 -14.333 12.667 -19 18s-8.5 11.166 -11.5 17.499s-4.83301 13.333 -5.5 21s-1.33398 13.167 -2.00098 16.5v340v205
c0 26.667 9.83301 48.834 29.5 66.501s43.834 26.5 72.501 26.5c16.667 0 31.834 -3 45.501 -9s26.167 -15.333 37.5 -28l75 -81c9.33301 -10 14.833 -17.667 16.5 -23s2.5 -16.333 2.5 -33v-132h-60l-81 72v-101c4.66699 -1.33301 8 -2.33301 10 -3
c1.33301 -0.666992 7 -4.33398 17 -11.001c4 -2 8.66699 -5.66699 14 -11c2.66699 -2 4.33398 -3.66699 5.00098 -5l71 -64c10 -8 17 -18 21 -30c1.33301 -4.66699 2.16602 -10.334 2.49902 -17.001s0.5 -13 0.5 -19v-216zM264.999 164.002l-0.00195312 212
c0 24 -8.66699 45 -26 63s-38 27 -62 27c-4.66699 -0.666992 -8 -1 -10 -1c-8.66699 0 -17 -2.33301 -25 -7c-7.33301 -6 -11.666 -9.33301 -12.999 -10l-5 -4v71v179c0 13.333 3.83301 24.833 11.5 34.5s17.834 14.5 30.501 14.5c12 0 22.167 -4.83301 30.5 -14.5
s12.5 -21.167 12.5 -34.5v-126h56v141c0 25.333 -9.83301 46.5 -29.5 63.5s-42.834 25.5 -69.501 25.5c-26 0 -48.833 -8.5 -68.5 -25.5s-29.5 -38.167 -29.5 -63.5v-205v-340c0 -25.333 9.83301 -46.5 29.5 -63.5s42.834 -25.5 69.501 -25.5c26 0 48.833 8.5 68.5 25.5
s29.5 38.167 29.5 63.5zM206.997 179.002c0 -12 -3.83301 -22.833 -11.5 -32.5s-17.167 -14.5 -28.5 -14.5s-21 4.66699 -29 14s-12 20.333 -12 33v182c0 12 3.66699 22 11 30s17.333 12 30 12c12 0 21.667 -4 29 -12s11 -18 11 -30v-182z" />
    <glyph glyph-name="seven" unicode="7" horiz-adv-x="408" 
d="M349 726l-150 -726h-60l-80 73l121 593h-41l-79 72v64h214zM270 798h-206v-56h136l-136 -666h58z" />
    <glyph glyph-name="eight" unicode="8" horiz-adv-x="408" 
d="M331 91c0 -25.333 -9.82715 -46.834 -29.4941 -64.501s-42.834 -26.5 -69.501 -26.5c-14.667 0 -26.334 0.833008 -35.001 2.5s-16.667 5.83398 -24 12.501l-78 72c-6.66699 6 -12.5 11.833 -17.5 17.5s-10.167 13.167 -15.5 22.5c-2.66699 4 -4.33398 9.5 -5.00098 16.5
s-1.66699 13.833 -3 20.5v203c0 8.66699 1.16699 15.834 3.5 21.501s6.66602 12.5 12.999 20.5s12.166 13.5 17.499 16.5s11 5.5 17 7.5c-8.66699 1.33301 -15.334 4 -20.001 8s-10 10 -16 18c-10 12.667 -15 27.667 -15 45v205c0 26.667 9.83301 48.834 29.5 66.501
s43.834 26.5 72.501 26.5c15.333 0 29.166 -2.5 41.499 -7.5s23.833 -12.5 34.5 -22.5l78 -75c6 -5.33301 11.333 -13.333 16 -24c2.66699 -7.33301 4.16699 -15.166 4.5 -23.499s0.5 -16.5 0.5 -24.5v-135v-12c0 -14.667 -1.66699 -25.667 -5 -33
c-7.33301 -18.667 -24.333 -33.334 -51 -44.001l-7 -3l45 -53c6 -4.66699 10.5 -10.834 13.5 -18.501s4.5 -16.834 4.5 -27.501v-16v-192zM254.006 503.999l0.000976562 205.002c0 25.333 -9.5 46.5 -28.5 63.5s-42.167 25.5 -69.5 25.5c-26 0 -48.833 -8.5 -68.5 -25.5
s-29.5 -38.167 -29.5 -63.5v-205c0 -16 5 -30.5 15 -43.5s20.333 -20.833 31 -23.5l17 -4l-17 -4c-6.66699 -1.33301 -11.834 -3.5 -15.501 -6.5s-8 -7.66699 -13 -14s-8.5 -11.166 -10.5 -14.499c-4.66699 -8 -7 -17 -7 -27v-203c0 -25.333 9.5 -46.5 28.5 -63.5
s41.833 -25.5 68.5 -25.5c26 0 48.833 8.5 68.5 25.5s29.5 38.167 29.5 63.5v203c0 8.66699 -1.16699 15.5 -3.5 20.5s-6.83301 11.833 -13.5 20.5c-4 5.33301 -8.5 9.66602 -13.5 12.999s-10.167 6 -15.5 8l-17 6l15 2c6.66699 2 12.167 4.66699 16.5 8
s9.33301 8.66602 15 15.999s10 14.166 13 20.499s4.5 13.833 4.5 22.5zM196.007 524.001c0 -12 -3.83301 -22.833 -11.5 -32.5s-17.167 -14.5 -28.5 -14.5s-21 4.66699 -29 14s-12 20.333 -12 33v170c0 12 3.83301 22.833 11.5 32.5s17.5 14.5 29.5 14.5
s21.667 -4.66699 29 -14s11 -20.333 11 -33v-170zM195.007 179.001c0 -12 -3.83301 -22.832 -11.5 -32.499s-17.167 -14.5 -28.5 -14.5s-20.666 4.66699 -27.999 14s-11 20.333 -11 33v168c0 11.333 3.66699 21.666 11 30.999s16.666 14 27.999 14s20.833 -4.5 28.5 -13.5
s11.5 -19.5 11.5 -31.5v-168z" />
    <glyph glyph-name="nine" unicode="9" horiz-adv-x="411" 
d="M344 91c0 -26 -9.83105 -47.667 -29.498 -65s-43.167 -26 -70.5 -26c-14 0 -25.5 1.16699 -34.5 3.5s-17.5 6.83301 -25.5 13.5l-81 75c-10.667 8.66699 -19.5 19.334 -26.5 32.001s-10.5 26 -10.5 40v126h64l76 -77v98l-98 96c-28 21.333 -42 47.333 -42 78v224
c0 26 9.66699 48 29 66s42.666 27 69.999 27c37.333 0 69.666 -15.667 96.999 -47l58 -65c4 -4.66699 7.83301 -10.667 11.5 -18s6.66699 -14.333 9 -21s3.5 -18.334 3.5 -35.001v-525zM266.002 165l0.000976562 193v352c0 24.667 -10.167 45.5 -30.5 62.5
s-43.833 25.5 -70.5 25.5c-26 0 -48.333 -8.33301 -67 -25s-28 -38 -28 -64v-224c0 -26 9.33301 -47.667 28 -65s41.667 -26 69 -26c10.667 0 21.667 5 33 15l10 10v-73v-166c0 -13.333 -3.83301 -24.833 -11.5 -34.5s-17.834 -14.5 -30.501 -14.5c-12 0 -22 5 -30 15
s-12 21.333 -12 34v106h-56v-122c0 -25.333 10 -46.333 30 -63s43.333 -25 70 -25c26 0 48.5 8.5 67.5 25.5s28.5 38.167 28.5 63.5zM210.003 499c0 -12.667 -4.16699 -23.834 -12.5 -33.501s-18.833 -14.5 -31.5 -14.5c-12 0 -21.833 4.83301 -29.5 14.5
s-11.5 20.834 -11.5 33.501v190c0 12.667 4 24 12 34s18 15 30 15s22.167 -4.83301 30.5 -14.5s12.5 -21.167 12.5 -34.5v-190z" />
    <glyph glyph-name="colon" unicode=":" horiz-adv-x="261" 
d="M204 319h-60l-79 72v64h64l75 -76v-60zM204 0h-60l-79 72v64h64l75 -76v-60zM125 395v56h-56v-56h56zM125 76v56h-56v-56h56z" />
    <glyph glyph-name="semicolon" unicode=";" horiz-adv-x="264" 
d="M202 318h-59l-80 72v64h64l75 -79v-57zM202 -2l0.000976562 -17v-12c0 -14 -1.66699 -24.667 -5 -32c-6.66699 -16.667 -16.667 -27.667 -30 -33l-21 -8l-95 105l13 6c16.667 8.66699 25 22 25 40c0 6 -2.33301 11.667 -7 17s-10.334 8 -17.001 8l-2 64h64l75 -78v-60z
M123.001 394v56h-56v-56h56zM123.001 74l-0.000976562 58.002h-56l1 -56c7.33301 0 13.333 -3 18 -9s7 -12.667 7 -20c0 -20.667 -9 -35.334 -27 -44.001l-6 -3l20 -24l9 6c14.667 10 24.334 20.667 29.001 32c2.66699 7.33301 4.16699 17.166 4.5 29.499s0.5 22.5 0.5 30.5
z" />
    <glyph glyph-name="less" unicode="&#x3c;" horiz-adv-x="641" 
d="M591 -1l-536 232v73l534 231v-87l-430 -181l432 -179v-89z" />
    <glyph glyph-name="equal" unicode="=" horiz-adv-x="624" 
d="M573 330h-521v76h521v-76zM575 148h-520v77h520v-77z" />
    <glyph glyph-name="greater" unicode="&#x3e;" horiz-adv-x="633" 
d="M579 233l-524 -224v85l425 175l-427 176v87l526 -225v-74z" />
    <glyph glyph-name="question" unicode="?" horiz-adv-x="413" 
d="M348 544l0.000976562 -12c0 -19.333 -0.5 -33.333 -1.5 -42s-4.5 -21.834 -10.5 -39.501s-12.333 -33.834 -19 -48.501c-8.66699 -18.667 -18 -47.334 -28 -86.001c-3.33301 -15.333 -5 -31.666 -5 -48.999v-111h-59l-79 72v113c0 18.667 1.66699 36 5 52
c8 32 14.333 54 19 66c6.66699 13.333 12 24.333 16 33h-39l-78 72v145c0 26.667 10.167 48.834 30.5 66.501s44.5 26.5 72.5 26.5c19.333 0 37.666 -4.83301 54.999 -14.5s31.333 -22.5 42 -38.5l6 -7l46 -51c7.33301 -7.33301 14 -18.333 20 -33
c3.33301 -7.33301 5.33301 -14.166 6 -20.499s1 -14.833 1 -25.5v-68zM281.001 0h-60l-79 72v64h64l75 -80v-56zM270.001 618l0.000976562 91.002c0 25.333 -9.5 46.5 -28.5 63.5s-42.167 25.5 -69.5 25.5c-26.667 0 -49.834 -8.5 -69.501 -25.5s-29.5 -38.167 -29.5 -63.5
v-141h56v126c0 13.333 4.16699 24.833 12.5 34.5s18.5 14.5 30.5 14.5s22 -5 30 -15s12 -21.333 12 -34v-76v-17.5c0 -5.66699 0.333008 -11.167 1 -16.5c0 -12 -0.5 -21.167 -1.5 -27.5s-3.5 -15.166 -7.5 -26.499c-7.33301 -19.333 -14.666 -36.333 -21.999 -51
c-9.33301 -18.667 -19 -47.334 -29 -86.001c-3.33301 -16 -5 -33.333 -5 -52v-109h54v109c0 17.333 1.66699 33.666 5 48.999c9.33301 35.333 15.666 57.333 18.999 66l31 72c5.33301 16 8.5 29.167 9.5 39.5s1.5 27.166 1.5 50.499zM202.002 76.002v56h-56v-56h56z" />
    <glyph glyph-name="at" unicode="@" horiz-adv-x="867" 
d="M838 444c0 -69.333 -28.333 -135.669 -85 -199.002s-118.334 -95 -185.001 -95c-14.667 0 -32 10 -52 30c-6.66699 6.66699 -15 16.667 -25 30c-16.667 -12 -30.667 -21 -42 -27c-34.667 -18 -69.667 -27 -105 -27c-43.333 0 -77.666 18.167 -102.999 54.5
s-38 82.166 -38 137.499c0 77.333 26.167 145.833 78.5 205.5s116.5 89.5 192.5 89.5c34.667 0 65 -11.333 91 -34c8.66699 -7.33301 18.334 -19 29.001 -35l16 45h59l-110 -319c-2.66699 -4.66699 -5.33398 -13 -8.00098 -25s-4 -21.333 -4 -28
c0 -13.333 3.33301 -24 10 -32s18.667 -12 36 -12c40 0 81 27.333 123 82s63 110.334 63 167.001c0 83.333 -29.667 153.666 -89 210.999s-133.666 86 -222.999 86c-103.333 0 -191.833 -36.167 -265.5 -108.5s-110.5 -159.5 -110.5 -261.5c0 -97.333 36.667 -178 110 -242
c70.667 -61.333 156 -92 256 -92c65.333 0 123.333 12.333 174 37c36.667 18 68.334 41.333 95.001 70l29 38h63l-33 -52c-30.667 -39.333 -68.334 -71.666 -113.001 -96.999c-62.667 -35.333 -133.334 -53 -212.001 -53c-122.667 0 -224.5 37.833 -305.5 113.5
s-121.5 170.167 -121.5 283.5c0 116.667 42.5 215.834 127.5 297.501s187.833 122.5 308.5 122.5c105.333 0 192.333 -32 261 -96c72 -67.333 108 -155.666 108 -264.999zM558 461.997c3.33301 10 5 20.333 5 31c0 26 -7.33301 48.333 -22 67
c-17.333 22 -40.666 33 -69.999 33c-45.333 0 -88.333 -18.333 -129 -55c-54 -48.667 -81 -117 -81 -205c0 -35.333 7 -64 21 -86c17.333 -27.333 45.333 -41 84 -41c39.333 0 73.666 17.667 102.999 53c20 23.333 36.333 53.333 49 90z" />
    <glyph glyph-name="A" unicode="A" horiz-adv-x="435" 
d="M375 0h-60l-79 72l-7 92l-22 23v-187h-60l-79 72l67 730h101l76 -76zM296 76l-64 722h-93l-67 -722h56l15 174h83l14 -174h56zM217 310h-65l28 316z" />
    <glyph glyph-name="B" unicode="B" horiz-adv-x="418" 
d="M358 620l-0.00195312 -130v-12c0 -14.667 -1.83301 -26.5 -5.5 -35.5s-9.66699 -16.833 -18 -23.5s-19.166 -12.667 -32.499 -18l-7 -3l37 -37c2.66699 -2.66699 6.33398 -7.5 11.001 -14.5s7.66699 -12.167 9 -15.5c4 -10.667 6 -23.334 6 -38.001v-193
c0 -17.333 -2.16699 -31.333 -6.5 -42s-12.833 -21.667 -25.5 -33s-27.5 -18.333 -44.5 -21s-39.833 -4 -68.5 -4h-56l-79 72v730h63c28.667 0 51 -1.33301 67 -4s31.333 -9.66699 46 -21c11.333 -9.33301 27 -24 47 -44c6.66699 -6.66699 16.334 -17 29.001 -31
c4.66699 -5.33301 9.66699 -12.833 15 -22.5s8.66602 -17.167 9.99902 -22.5s2 -11.666 2 -18.999s0.333008 -13.333 1 -18zM279.998 175l-0.000976562 192.001c0.666992 8.66699 1 14.667 1 18c0 8 -2 14.667 -6 20c-2.66699 5.33301 -6.33398 9.83301 -11.001 13.5
s-10.667 7.16699 -18 10.5l-15 7l15 3c11.333 1.33301 20.666 8.33301 27.999 21c4 5.33301 6 14 6 26v18v195c0 18 -1.83301 32.667 -5.5 44s-11.167 21.333 -22.5 30c-13.333 10.667 -28.666 17.5 -45.999 20.5s-39 4.5 -65 4.5h-59v-722h55h31
c18.667 0 34.334 1.66699 47.001 5s24.334 10.333 35.001 21c20 21.333 30 45.666 30 72.999zM221.997 515.001v-18c0 -12 -2.33301 -20.5 -7 -25.5s-10.667 -8.16699 -18 -9.5s-15.333 -2 -24 -2h-33v281h15c11.333 0 22 -0.666992 32 -2s18.333 -5.66602 25 -12.999
c4.66699 -5.33301 7.5 -11.333 8.5 -18s1.5 -16.334 1.5 -29.001v-164zM221.997 194.001v-13.002c0 -8.66699 -0.333008 -14.667 -1 -18c-1.33301 -5.33301 -4.33301 -10.666 -9 -15.999s-10 -8.83301 -16 -10.5s-14 -2.5 -24 -2.5h-12h-20v266h33c12 0 20.667 -0.5 26 -1.5
s10.333 -4.5 15 -10.5c2.66699 -3.33301 4.66699 -6.66602 6 -9.99902c1.33301 -4 2 -11.333 2 -22v-12v-150z" />
    <glyph glyph-name="C" unicode="C" horiz-adv-x="421" 
d="M360 91c0 -26 -9.83398 -47.668 -29.501 -65.001s-43.167 -26 -70.5 -26c-14.667 0 -26.334 0.833008 -35.001 2.5s-16.667 5.83398 -24 12.501l-79 71c-15.333 12.667 -26.166 24.667 -32.499 36s-9.5 25.333 -9.5 42v545c0 26.667 9.83301 48.834 29.5 66.501
s43.834 26.5 72.501 26.5c19.333 0 37.333 -4.66699 54 -14s30.667 -22.333 42 -39l4 -4l51 -55c4.66699 -4.66699 9.16699 -9.83398 13.5 -15.501s7.5 -11.5 9.5 -17.5s3 -17.333 3 -34v-151h-60l-76 72v-201h62l74 -74zM280.999 163.999v175h-56v-160
c0 -13.333 -3.83301 -24.833 -11.5 -34.5s-17.834 -14.5 -30.501 -14.5c-12 0 -22.167 4.83301 -30.5 14.5s-12.5 21.167 -12.5 34.5v515c0 13.333 3.83301 24.833 11.5 34.5s17.834 14.5 30.501 14.5c12 0 22.167 -4.83301 30.5 -14.5s12.5 -21.167 12.5 -34.5v-146h56v161
c0 25.333 -9.83301 46.5 -29.5 63.5s-42.834 25.5 -69.501 25.5c-26 0 -48.833 -8.5 -68.5 -25.5s-29.5 -38.167 -29.5 -63.5v-545c0 -25.333 9.83301 -46.5 29.5 -63.5s42.834 -25.5 69.501 -25.5c26 0 48.833 8.5 68.5 25.5s29.5 38.167 29.5 63.5z" />
    <glyph glyph-name="D" unicode="D" horiz-adv-x="430" 
d="M362 103c0 -17.333 -2.16895 -31.667 -6.50195 -43s-12.833 -22.5 -25.5 -33.5s-27 -17.833 -43 -20.5s-38.667 -4 -68 -4h-60l-79 72v730h63c36.667 0 61.834 -2 75.501 -6s25.834 -11.333 36.501 -22l78 -76c10.667 -10 19 -23.333 25 -40c1.33301 -4 2.33301 -8 3 -12
c0.666992 -4.66699 1 -12.667 1 -24v-521zM281.998 176.999l0.000976562 523.999c0 14 -2.16699 25.5 -6.5 34.5s-11.833 19.5 -22.5 31.5c-13.333 15.333 -27.833 24.666 -43.5 27.999s-37.834 5 -66.501 5h-59v-722h55h16c29.333 0 50.333 1.83301 63 5.5
s24.167 10.334 34.5 20.001s17.833 20.334 22.5 32.001s7 25.5 7 41.5zM223.999 195.998l0.000976562 -13c0 -8.66699 -0.333008 -14.667 -1 -18c-1.33301 -5.33301 -4.33301 -10.666 -9 -15.999s-10 -8.83301 -16 -10.5s-14 -2.5 -24 -2.5h-12h-20v607h15
c14 0 25.167 -0.833008 33.5 -2.5s16.166 -5.83398 23.499 -12.501c4.66699 -4 7.5 -9.33301 8.5 -16s1.5 -17 1.5 -31v-485z" />
    <glyph glyph-name="E" unicode="E" horiz-adv-x="370" 
d="M310 318h-97v-182h22l74 -76v-60h-156l-78 72v730h160l74 -78v-58h-96v-212h22l75 -74v-62zM231 76v56h-96v262h96v56h-96v292h96v56h-152v-722h152z" />
    <glyph glyph-name="F" unicode="F" horiz-adv-x="366" 
d="M307 318h-97v-318h-60l-78 72v730h160l74 -78v-58h-96v-212h22l75 -74v-62zM228 394v56h-96v292h96v56h-152v-722h56v318h96z" />
    <glyph glyph-name="G" unicode="G" horiz-adv-x="405" 
d="M344 0l-59.999 -0.000976562l-12 12c-8 -4.66699 -13.667 -7.66699 -17 -9c-5.33301 -2 -11.333 -3 -18 -3c-17.333 0 -29.5 0.666992 -36.5 2s-14.5 5.66602 -22.5 12.999l-72 69c-27.333 18.667 -41 45.334 -41 80.001v545c0 26.667 9.83301 48.834 29.5 66.501
s43.834 26.5 72.501 26.5c41.333 0 73.333 -16.667 96 -50l54 -63c4 -4 8.16699 -8.83301 12.5 -14.5s7.66602 -11.667 9.99902 -18s3.66602 -13.333 3.99902 -21s0.5 -15.167 0.5 -22.5v-141h-60l-77 72v-140h63l74 -77v-327zM266.001 75.999l0.00195312 323h-87v-55h31
v-165c0 -13.333 -3.83301 -24.833 -11.5 -34.5s-17.834 -14.5 -30.501 -14.5c-12 0 -22.167 4.83301 -30.5 14.5s-12.5 21.167 -12.5 34.5v515c0 13.333 3.83301 24.833 11.5 34.5s17.834 14.5 30.501 14.5c12 0 22.167 -4.83301 30.5 -14.5s12.5 -21.167 12.5 -34.5v-146
h56v161c0 25.333 -9.83301 46.5 -29.5 63.5s-42.834 25.5 -69.501 25.5c-26 0 -48.833 -8.5 -68.5 -25.5s-29.5 -38.167 -29.5 -63.5v-545c0 -24 8.66699 -45 26 -63s37.666 -27 60.999 -27c5.33301 0 9.33301 0.333008 12 1c6.66699 0 12.667 1.33301 18 4s12.333 7 21 13
l3 2v-18h56z" />
    <glyph glyph-name="H" unicode="H" horiz-adv-x="472" 
d="M380 0h-60l-79 72v247l-7 6v-325h-60l-79 72v730h64l74 -76v-272h8v348h64l75 -76v-726zM301 76v722h-56v-348h-90v348h-56v-722h56v318h90v-318h56z" />
    <glyph glyph-name="I" unicode="I" horiz-adv-x="315" 
d="M227 0h-60l-79 72v730h64l75 -76v-726zM148 76v722h-56v-722h56z" />
    <glyph glyph-name="J" unicode="J" horiz-adv-x="427" 
d="M344 91c0 -26 -9.83301 -47.667 -29.5 -65s-43.167 -26 -70.5 -26c-17.333 0 -29.5 0.666992 -36.5 2s-14.5 5.66602 -22.5 12.999l-77 69c-28.667 18.667 -43 45.334 -43 80.001v179h64l77 -75v534h64l74 -70v-641zM266 164l-0.000976562 634h-56v-619
c0 -13.333 -4.16699 -24.833 -12.5 -34.5s-18.5 -14.5 -30.5 -14.5s-22 5 -30 15s-12 21.333 -12 34v160h-56v-175c0 -25.333 9.66699 -46.5 29 -63.5s42.333 -25.5 69 -25.5s49.834 8.5 69.501 25.5s29.5 38.167 29.5 63.5z" />
    <glyph glyph-name="K" unicode="K" horiz-adv-x="452" 
d="M403 0h-60l-81 73l-44 126v-199h-60l-80 72v730h64l76 -76v-49l44 124l65 1l76 -76l-121 -347zM321 76l-121 373l121 349h-55l-113 -319l-15 -1v320h-56v-722h56v324h13l115 -324h55z" />
    <glyph glyph-name="L" unicode="L" horiz-adv-x="378" 
d="M316 0h-155l-79 72v730h64l74 -76v-589h22l74 -77v-60zM238 76v56h-96v666h-56v-722h152z" />
    <glyph glyph-name="M" unicode="M" horiz-adv-x="546" 
d="M472 0h-60l-58 56v-56h-80l-60 58v-58h-60l-79 72v730h101l76 -76l19 -158l25 234h101l75 -76v-726zM393 76v722h-93l-62 -570l-66 570h-93v-722h56v548l65 -548h75l62 548v-548h56z" />
    <glyph glyph-name="N" unicode="N" horiz-adv-x="482" 
d="M401 0h-98l-78 72l-8 52v-124h-60l-79 72v730h101l76 -76l7 -48v124h64l75 -76v-726zM322 76v722h-56v-556l-91 556h-93v-722h56v561l91 -561h93z" />
    <glyph glyph-name="O" unicode="O" horiz-adv-x="430" 
d="M358 91c0 -26 -9.83301 -47.667 -29.5 -65s-43.167 -26 -70.5 -26c-17.333 0 -29.5 0.666992 -36.5 2s-14.5 5.66602 -22.5 12.999l-77 69c-28.667 19.333 -43 46 -43 80v545c0 26.667 9.83301 48.834 29.5 66.501s43.834 26.5 72.501 26.5c21.333 0 42 -5.33301 62 -16
c3.33301 -1.33301 7.66602 -4.33301 12.999 -9l75 -87c5.33301 -6 9.5 -11.167 12.5 -15.5s6.16699 -11.5 9.5 -21.5s5 -21 5 -33v-529zM280 164v545c0 25.333 -9.83301 46.5 -29.5 63.5s-42.834 25.5 -69.501 25.5c-26 0 -48.833 -8.5 -68.5 -25.5
s-29.5 -38.167 -29.5 -63.5v-545c0 -25.333 9.83301 -46.5 29.5 -63.5s42.834 -25.5 69.501 -25.5c26 0 48.833 8.5 68.5 25.5s29.5 38.167 29.5 63.5zM222 179c0 -12 -3.83301 -22.833 -11.5 -32.5s-17.167 -14.5 -28.5 -14.5s-21 4.66699 -29 14s-12 20.333 -12 33v515
c0 12 3.83301 22.833 11.5 32.5s17.167 14.5 28.5 14.5s21 -4.66699 29 -14s12 -20.333 12 -33v-515z" />
    <glyph glyph-name="P" unicode="P" 
d="M352 421c0 -16 -1.99902 -29.6689 -5.99902 -41.002s-11.333 -22.666 -22 -33.999s-22 -18.5 -34 -21.5s-28 -4.5 -48 -4.5h-23h-8v-320h-60l-79 72v730h63c31.333 0 54.166 -1.16699 68.499 -3.5s28.333 -9.16602 42 -20.499s35.167 -33.333 64.5 -66l16.5 -19
c7 -8 10.833 -12.333 11.5 -13c6 -8 9.66699 -15.333 11 -22l3 -36v-201zM274.001 492.998v206c0 18 -2 32.333 -6 43s-11.667 20.667 -23 30c-15.333 12 -30.5 19.333 -45.5 22s-36.5 4 -64.5 4h-59v-722h56v318h10h30c22.667 0 38.667 1.83301 48 5.5
s18.333 10.167 27 19.5c18 20 27 44.667 27 74zM216.001 512.998v-12.999c0 -8.66699 -0.333008 -14.667 -1 -18c-1.33301 -5.33301 -4.16602 -11 -8.49902 -17s-9.5 -9.83301 -15.5 -11.5s-14.333 -2.5 -25 -2.5h-17h-15v290h15c14 0 25.167 -0.833008 33.5 -2.5
s16.166 -5.83398 23.499 -12.501c4.66699 -4 7.5 -9.33301 8.5 -16s1.5 -17 1.5 -31v-166z" />
    <glyph glyph-name="Q" unicode="Q" horiz-adv-x="488" 
d="M423 -18l-26 3c-34.667 6.66699 -63.667 23 -87 49l-8 -10c-7.33301 -9.33301 -14.833 -15.5 -22.5 -18.5s-17.834 -4.5 -30.501 -4.5c-2.66699 -0.666992 -7 -1 -13 -1c-24.667 0 -51.5 9.66699 -80.5 29s-51.5 42.666 -67.5 69.999
c-6.66699 11.333 -11.5 21.5 -14.5 30.5s-4.5 20.5 -4.5 34.5v545c0 26.667 9.83301 48.834 29.5 66.501s43.834 26.5 72.501 26.5c40.667 0 73 -17.333 97 -52l53 -59c3.33301 -3.33301 6.33301 -7 9 -11c6.66699 -8.66699 11 -17 13 -25l3 -30v-511l77 -73v-59zM344 57
l-0.999023 55c-8.66699 0 -16.334 1.83301 -23.001 5.5s-14.5 9.5 -23.5 17.5s-15.167 14.667 -18.5 20c-5.33301 8.66699 -8 18 -8 28v526c0 25.333 -9.83301 46.5 -29.5 63.5s-42.834 25.5 -69.501 25.5c-26 0 -48.833 -8.5 -68.5 -25.5s-29.5 -38.167 -29.5 -63.5v-545
c0 -25.333 9.83301 -46.5 29.5 -63.5s42.834 -25.5 69.501 -25.5c37.333 0 65.666 14 84.999 42l3 4l1 -4c8.66699 -30 28.334 -49 59.001 -57zM212.001 179c1.33301 -11.333 -2.16602 -22 -10.499 -32s-18.166 -15 -29.499 -15s-21 4.66699 -29 14s-12 20.333 -12 33v515
c0 12 3.83301 22.833 11.5 32.5s17.167 14.5 28.5 14.5s21 -4.66699 29 -14s12 -20.333 12 -33l-1 -449c-4.66699 4 -11.334 7.33301 -20.001 10h-15v-60h17c9.33301 -2.66699 15.666 -8 18.999 -16z" />
    <glyph glyph-name="R" unicode="R" horiz-adv-x="427" 
d="M362 0l-60 0.000976562l-79 72v264v18c0 11.333 -2.33301 19.666 -7 24.999c3.33301 -5.33301 5 -13.333 5 -24c-0.666992 -11.333 -1 -19.666 -1 -24.999v-330h-60l-79 72v730h63h21c16 0 31.167 -1.16699 45.5 -3.5s27 -7.5 38 -15.5s21.833 -18 32.5 -30
c1.33301 -2 3.33301 -4.33301 6 -7l48 -51c4.66699 -4.66699 9.16699 -10.5 13.5 -17.5s7.33301 -14.667 9 -23s2.5 -17.833 2.5 -28.5v-136v-12c0 -14.667 -1.66699 -25.667 -5 -33c-7.33301 -18.667 -24.333 -33.334 -51 -44.001l-7 -3l45 -43
c6.66699 -5.33301 11.667 -13 15 -23s5 -23 5 -39v-293zM283 76.001l-0.00195312 283.004v17c0 9.33301 -2 17.333 -6 24c-6.66699 10.667 -16 17.667 -28 21l-9 2l11 4c8.66699 3.33301 15 7.66602 19 12.999c2 2.66699 4.33301 6.66699 7 12
s4.33398 11.166 5.00098 17.499s1 14.166 1 23.499v206c0 29.333 -9.66699 53.666 -29 72.999c-11.333 11.333 -24 18.5 -38 21.5s-32.667 4.5 -56 4.5h-16h-59v-722h56v318h35c12.667 0 21.834 -0.5 27.501 -1.5s11 -4.66699 16 -11s7.5 -15.5 7.5 -27.5v-18v-260h56z
M224.998 513.005v-12.999c0 -8.66699 -0.333008 -14.667 -1 -18c-1.33301 -5.33301 -4.16602 -11 -8.49902 -17s-9.5 -9.83301 -15.5 -11.5s-14.333 -2.5 -25 -2.5h-17h-15v290h15c14 0 25.167 -0.833008 33.5 -2.5s16.166 -5.83398 23.499 -12.501
c4.66699 -4 7.5 -9.33301 8.5 -16s1.5 -17 1.5 -31v-166z" />
    <glyph glyph-name="S" unicode="S" 
d="M344 91c0 -26 -9.83496 -47.665 -29.502 -64.998s-43.167 -26 -70.5 -26c-17.333 0 -29.5 0.666992 -36.5 2s-14.5 5.66602 -22.5 12.999l-74 64c-14.667 11.333 -26.167 24.166 -34.5 38.499s-12.5 29.833 -12.5 46.5v179h64l77 -76v19c0 17.333 -1.33301 35 -4 53
c-5.33301 35.333 -21 70.666 -47 105.999c-47.333 64.667 -71.666 98 -72.999 100c-6 10 -10.167 20.833 -12.5 32.5s-3.5 23.5 -3.5 35.5v25v71c0 26.667 9.83301 48.834 29.5 66.501s43.834 26.5 72.501 26.5c22 0 42 -5.33301 60 -16c6 -3.33301 13 -9 21 -17l69 -82
c6.66699 -8 11 -13.667 13 -17c5.33301 -8 9 -15.667 11 -23l3 -27v-126h-60l-74 70v-13c0 -30.667 6.33301 -56.334 19 -77.001c32 -45.333 54.333 -78 67 -98c22 -34 37 -70 45 -108c1.33301 -4.66699 2 -10.167 2 -16.5s0.333008 -11.166 1 -14.499v-11v-135z
M265.998 568.002v140.999c0 25.333 -9.83301 46.5 -29.5 63.5s-42.834 25.5 -69.501 25.5c-26 0 -48.833 -8.5 -68.5 -25.5s-29.5 -38.167 -29.5 -63.5v-71v-25c0 -14 0.833008 -25.5 2.5 -34.5s6.16699 -19.5 13.5 -31.5c11.333 -20 29.333 -45.667 54 -77
c38 -48.667 60 -92.334 66 -131.001c1.33301 -9.33301 2.33301 -21.666 3 -36.999s1 -28 1 -38v-85c0 -13.333 -4.16699 -24.833 -12.5 -34.5s-18.5 -14.5 -30.5 -14.5s-22 5 -30 15s-12 21.333 -12 34v160h-56v-175c0 -25.333 9.5 -46.5 28.5 -63.5
s42.167 -25.5 69.5 -25.5c26.667 0 49.834 8.5 69.501 25.5s29.5 38.167 29.5 63.5v102v30c0 6.66699 -0.333008 14.5 -1 23.5s-1.33398 16.5 -2.00098 22.5c-5.33301 36.667 -20 71.834 -44 105.501l-71 99.5c-8.66699 14 -14.5 26.5 -17.5 37.5s-4.5 22.833 -4.5 35.5v18
v56c0 13.333 3.83301 24.833 11.5 34.5s17.834 14.5 30.501 14.5c12 0 22.167 -4.83301 30.5 -14.5s12.5 -21.167 12.5 -34.5v-126h56z" />
    <glyph glyph-name="T" unicode="T" horiz-adv-x="412" 
d="M354 670h-78v-670h-59l-79 72v597l-80 69v64h224l72 -72v-60zM278 742v56h-216v-56h80v-666h56v666h80z" />
    <glyph glyph-name="U" unicode="U" horiz-adv-x="443" 
d="M360 90c0 -25.333 -9.83203 -46.666 -29.499 -63.999s-42.834 -26 -69.501 -26c-17.333 0 -29.5 0.666992 -36.5 2s-14.5 5.66602 -22.5 12.999l-77 68c-28.667 22 -43 49 -43 81v638h64l77 -74v74h64l73 -70v-642zM283.001 164v634h-56v-619
c0 -13.333 -3.83301 -24.833 -11.5 -34.5s-17.834 -14.5 -30.501 -14.5c-12 0 -22.167 4.83301 -30.5 14.5s-12.5 21.167 -12.5 34.5v619h-56v-634c0 -25.333 9.83301 -46.5 29.5 -63.5s42.834 -25.5 69.501 -25.5c26 0 48.833 8.5 68.5 25.5s29.5 38.167 29.5 63.5z" />
    <glyph glyph-name="V" unicode="V" horiz-adv-x="404" 
d="M343 726l-50 -726h-98l-79 72l-52 730h64l71 -74l5 74h64zM264 798h-56l-40 -552h-4l-40 552h-56l53 -722h93z" />
    <glyph glyph-name="W" unicode="W" horiz-adv-x="575" 
d="M521 726l-49 -726h-98l-75 66l-10 -68h-100l-79 72l-52 732h64l71 -74l5 74h108l71 -75l5 75h64zM442 798h-56l-42 -554l-42 554h-100l-40 -552l-44 552h-56l53 -722h93l42 552l49 -552h93z" />
    <glyph glyph-name="X" unicode="X" horiz-adv-x="398" 
d="M341 0h-60l-80 73v-73h-60l-79 72l50 396l-50 334h64l65 -72l11 72h64l75 -76l-51 -332zM262 76l-50 392l50 330h-56l-42 -253l-42 253h-56l50 -330l-50 -392h56l43 318l41 -318h56z" />
    <glyph glyph-name="Y" unicode="Y" horiz-adv-x="396" 
d="M341 726l-70 -360v-366h-60l-79 72v369l-70 361h64l66 -66l10 66h64zM262 798h-56l-41 -260l-43 260h-56l70 -357v-365h56v365z" />
    <glyph glyph-name="Z" unicode="Z" horiz-adv-x="403" 
d="M349 726l-120 -590h32l74 -78v-58h-194l-79 72l121 594h-44l-77 72v64h214zM272 798h-206v-56h136l-136 -666h191v56h-122z" />
    <glyph glyph-name="bracketleft" unicode="[" horiz-adv-x="345" 
d="M283 0h-156l-62 72v730h160l58 -62v-60h-96v-544h38l58 -62v-74zM221 76v56h-96v610h96v56h-152v-722h152z" />
    <glyph glyph-name="backslash" unicode="\" horiz-adv-x="394" 
d="M337 0h-68l-210 800h70z" />
    <glyph glyph-name="bracketright" unicode="]" horiz-adv-x="358" 
d="M280 0h-156l-62 72v64h96v544h-33l-63 58v64h160l58 -62v-740zM218 76v722h-152v-56h96v-610h-96v-56h152z" />
    <glyph glyph-name="asciicircum" unicode="^" horiz-adv-x="405" 
d="M352 619h-39l-76 44l-74 -44h-43l-85 72l97 84l52 1l99 -85zM271 695l-88 77h-50l-86 -77h38l72 43l81 -43h33z" />
    <glyph glyph-name="underscore" unicode="_" horiz-adv-x="693" 
d="M698 -129h-698v66h698v-66z" />
    <glyph glyph-name="grave" unicode="`" horiz-adv-x="314" 
d="M308 657l-16 -20l-185 81l-82 80l73 42l135 -102zM229 735l-130 100l-64 -37l180 -79z" />
    <glyph glyph-name="a" unicode="a" horiz-adv-x="435" 
d="M375 0h-60l-79 72l-7 92l-22 23v-187h-60l-79 72l67 730h101l76 -76zM296 76l-64 722h-93l-67 -722h56l15 174h83l14 -174h56zM217 310h-65l28 316z" />
    <glyph glyph-name="b" unicode="b" horiz-adv-x="418" 
d="M358 620l-0.00195312 -130v-12c0 -14.667 -1.83301 -26.5 -5.5 -35.5s-9.66699 -16.833 -18 -23.5s-19.166 -12.667 -32.499 -18l-7 -3l37 -37c2.66699 -2.66699 6.33398 -7.5 11.001 -14.5s7.66699 -12.167 9 -15.5c4 -10.667 6 -23.334 6 -38.001v-193
c0 -17.333 -2.16699 -31.333 -6.5 -42s-12.833 -21.667 -25.5 -33s-27.5 -18.333 -44.5 -21s-39.833 -4 -68.5 -4h-56l-79 72v730h63c28.667 0 51 -1.33301 67 -4s31.333 -9.66699 46 -21c11.333 -9.33301 27 -24 47 -44c6.66699 -6.66699 16.334 -17 29.001 -31
c4.66699 -5.33301 9.66699 -12.833 15 -22.5s8.66602 -17.167 9.99902 -22.5s2 -11.666 2 -18.999s0.333008 -13.333 1 -18zM279.998 175l-0.000976562 192.001c0.666992 8.66699 1 14.667 1 18c0 8 -2 14.667 -6 20c-2.66699 5.33301 -6.33398 9.83301 -11.001 13.5
s-10.667 7.16699 -18 10.5l-15 7l15 3c11.333 1.33301 20.666 8.33301 27.999 21c4 5.33301 6 14 6 26v18v195c0 18 -1.83301 32.667 -5.5 44s-11.167 21.333 -22.5 30c-13.333 10.667 -28.666 17.5 -45.999 20.5s-39 4.5 -65 4.5h-59v-722h55h31
c18.667 0 34.334 1.66699 47.001 5s24.334 10.333 35.001 21c20 21.333 30 45.666 30 72.999zM221.997 515.001v-18c0 -12 -2.33301 -20.5 -7 -25.5s-10.667 -8.16699 -18 -9.5s-15.333 -2 -24 -2h-33v281h15c11.333 0 22 -0.666992 32 -2s18.333 -5.66602 25 -12.999
c4.66699 -5.33301 7.5 -11.333 8.5 -18s1.5 -16.334 1.5 -29.001v-164zM221.997 194.001v-13.002c0 -8.66699 -0.333008 -14.667 -1 -18c-1.33301 -5.33301 -4.33301 -10.666 -9 -15.999s-10 -8.83301 -16 -10.5s-14 -2.5 -24 -2.5h-12h-20v266h33c12 0 20.667 -0.5 26 -1.5
s10.333 -4.5 15 -10.5c2.66699 -3.33301 4.66699 -6.66602 6 -9.99902c1.33301 -4 2 -11.333 2 -22v-12v-150z" />
    <glyph glyph-name="c" unicode="c" horiz-adv-x="421" 
d="M360 91c0 -26 -9.83398 -47.668 -29.501 -65.001s-43.167 -26 -70.5 -26c-14.667 0 -26.334 0.833008 -35.001 2.5s-16.667 5.83398 -24 12.501l-79 71c-15.333 12.667 -26.166 24.667 -32.499 36s-9.5 25.333 -9.5 42v545c0 26.667 9.83301 48.834 29.5 66.501
s43.834 26.5 72.501 26.5c19.333 0 37.333 -4.66699 54 -14s30.667 -22.333 42 -39l4 -4l51 -55c4.66699 -4.66699 9.16699 -9.83398 13.5 -15.501s7.5 -11.5 9.5 -17.5s3 -17.333 3 -34v-151h-60l-76 72v-201h62l74 -74zM280.999 163.999v175h-56v-160
c0 -13.333 -3.83301 -24.833 -11.5 -34.5s-17.834 -14.5 -30.501 -14.5c-12 0 -22.167 4.83301 -30.5 14.5s-12.5 21.167 -12.5 34.5v515c0 13.333 3.83301 24.833 11.5 34.5s17.834 14.5 30.501 14.5c12 0 22.167 -4.83301 30.5 -14.5s12.5 -21.167 12.5 -34.5v-146h56v161
c0 25.333 -9.83301 46.5 -29.5 63.5s-42.834 25.5 -69.501 25.5c-26 0 -48.833 -8.5 -68.5 -25.5s-29.5 -38.167 -29.5 -63.5v-545c0 -25.333 9.83301 -46.5 29.5 -63.5s42.834 -25.5 69.501 -25.5c26 0 48.833 8.5 68.5 25.5s29.5 38.167 29.5 63.5z" />
    <glyph glyph-name="d" unicode="d" horiz-adv-x="430" 
d="M362 103c0 -17.333 -2.16895 -31.667 -6.50195 -43s-12.833 -22.5 -25.5 -33.5s-27 -17.833 -43 -20.5s-38.667 -4 -68 -4h-60l-79 72v730h63c36.667 0 61.834 -2 75.501 -6s25.834 -11.333 36.501 -22l78 -76c10.667 -10 19 -23.333 25 -40c1.33301 -4 2.33301 -8 3 -12
c0.666992 -4.66699 1 -12.667 1 -24v-521zM281.998 176.999l0.000976562 523.999c0 14 -2.16699 25.5 -6.5 34.5s-11.833 19.5 -22.5 31.5c-13.333 15.333 -27.833 24.666 -43.5 27.999s-37.834 5 -66.501 5h-59v-722h55h16c29.333 0 50.333 1.83301 63 5.5
s24.167 10.334 34.5 20.001s17.833 20.334 22.5 32.001s7 25.5 7 41.5zM223.999 195.998l0.000976562 -13c0 -8.66699 -0.333008 -14.667 -1 -18c-1.33301 -5.33301 -4.33301 -10.666 -9 -15.999s-10 -8.83301 -16 -10.5s-14 -2.5 -24 -2.5h-12h-20v607h15
c14 0 25.167 -0.833008 33.5 -2.5s16.166 -5.83398 23.499 -12.501c4.66699 -4 7.5 -9.33301 8.5 -16s1.5 -17 1.5 -31v-485z" />
    <glyph glyph-name="e" unicode="e" horiz-adv-x="370" 
d="M310 318h-97v-182h22l74 -76v-60h-156l-78 72v730h160l74 -78v-58h-96v-212h22l75 -74v-62zM231 76v56h-96v262h96v56h-96v292h96v56h-152v-722h152z" />
    <glyph glyph-name="f" unicode="f" horiz-adv-x="366" 
d="M307 318h-97v-318h-60l-78 72v730h160l74 -78v-58h-96v-212h22l75 -74v-62zM228 394v56h-96v292h96v56h-152v-722h56v318h96z" />
    <glyph glyph-name="g" unicode="g" horiz-adv-x="405" 
d="M344 0l-59.999 -0.000976562l-12 12c-8 -4.66699 -13.667 -7.66699 -17 -9c-5.33301 -2 -11.333 -3 -18 -3c-17.333 0 -29.5 0.666992 -36.5 2s-14.5 5.66602 -22.5 12.999l-72 69c-27.333 18.667 -41 45.334 -41 80.001v545c0 26.667 9.83301 48.834 29.5 66.501
s43.834 26.5 72.501 26.5c41.333 0 73.333 -16.667 96 -50l54 -63c4 -4 8.16699 -8.83301 12.5 -14.5s7.66602 -11.667 9.99902 -18s3.66602 -13.333 3.99902 -21s0.5 -15.167 0.5 -22.5v-141h-60l-77 72v-140h63l74 -77v-327zM266.001 75.999l0.00195312 323h-87v-55h31
v-165c0 -13.333 -3.83301 -24.833 -11.5 -34.5s-17.834 -14.5 -30.501 -14.5c-12 0 -22.167 4.83301 -30.5 14.5s-12.5 21.167 -12.5 34.5v515c0 13.333 3.83301 24.833 11.5 34.5s17.834 14.5 30.501 14.5c12 0 22.167 -4.83301 30.5 -14.5s12.5 -21.167 12.5 -34.5v-146
h56v161c0 25.333 -9.83301 46.5 -29.5 63.5s-42.834 25.5 -69.501 25.5c-26 0 -48.833 -8.5 -68.5 -25.5s-29.5 -38.167 -29.5 -63.5v-545c0 -24 8.66699 -45 26 -63s37.666 -27 60.999 -27c5.33301 0 9.33301 0.333008 12 1c6.66699 0 12.667 1.33301 18 4s12.333 7 21 13
l3 2v-18h56z" />
    <glyph glyph-name="h" unicode="h" horiz-adv-x="472" 
d="M380 0h-60l-79 72v247l-7 6v-325h-60l-79 72v730h64l74 -76v-272h8v348h64l75 -76v-726zM301 76v722h-56v-348h-90v348h-56v-722h56v318h90v-318h56z" />
    <glyph glyph-name="i" unicode="i" horiz-adv-x="315" 
d="M227 0h-60l-79 72v730h64l75 -76v-726zM148 76v722h-56v-722h56z" />
    <glyph glyph-name="j" unicode="j" horiz-adv-x="427" 
d="M344 91c0 -26 -9.83301 -47.667 -29.5 -65s-43.167 -26 -70.5 -26c-17.333 0 -29.5 0.666992 -36.5 2s-14.5 5.66602 -22.5 12.999l-77 69c-28.667 18.667 -43 45.334 -43 80.001v179h64l77 -75v534h64l74 -70v-641zM266 164l-0.000976562 634h-56v-619
c0 -13.333 -4.16699 -24.833 -12.5 -34.5s-18.5 -14.5 -30.5 -14.5s-22 5 -30 15s-12 21.333 -12 34v160h-56v-175c0 -25.333 9.66699 -46.5 29 -63.5s42.333 -25.5 69 -25.5s49.834 8.5 69.501 25.5s29.5 38.167 29.5 63.5z" />
    <glyph glyph-name="k" unicode="k" horiz-adv-x="452" 
d="M403 0h-60l-81 73l-44 126v-199h-60l-80 72v730h64l76 -76v-49l44 124l65 1l76 -76l-121 -347zM321 76l-121 373l121 349h-55l-113 -319l-15 -1v320h-56v-722h56v324h13l115 -324h55z" />
    <glyph glyph-name="l" unicode="l" horiz-adv-x="378" 
d="M316 0h-155l-79 72v730h64l74 -76v-590h22l74 -76v-60zM238 76v56h-96v666h-56v-722h152z" />
    <glyph glyph-name="m" unicode="m" horiz-adv-x="546" 
d="M472 0h-60l-58 56v-56h-80l-60 58v-58h-60l-79 72v730h101l76 -76l19 -158l25 234h101l75 -76v-726zM393 76v722h-93l-62 -570l-66 570h-93v-722h56v548l65 -548h75l62 548v-548h56z" />
    <glyph glyph-name="n" unicode="n" horiz-adv-x="482" 
d="M401 0h-98l-78 72l-8 52v-124h-60l-79 72v730h101l76 -76l7 -48v124h64l75 -76v-726zM322 76v722h-56v-556l-91 556h-93v-722h56v561l91 -561h93z" />
    <glyph glyph-name="o" unicode="o" horiz-adv-x="430" 
d="M358 91c0 -26 -9.83301 -47.667 -29.5 -65s-43.167 -26 -70.5 -26c-17.333 0 -29.5 0.666992 -36.5 2s-14.5 5.66602 -22.5 12.999l-77 69c-28.667 19.333 -43 46 -43 80v545c0 26.667 9.83301 48.834 29.5 66.501s43.834 26.5 72.501 26.5c21.333 0 42 -5.33301 62 -16
c3.33301 -1.33301 7.66602 -4.33301 12.999 -9l75 -87c5.33301 -6 9.5 -11.167 12.5 -15.5s6.16699 -11.5 9.5 -21.5s5 -21 5 -33v-529zM280 164v545c0 25.333 -9.83301 46.5 -29.5 63.5s-42.834 25.5 -69.501 25.5c-26 0 -48.833 -8.5 -68.5 -25.5
s-29.5 -38.167 -29.5 -63.5v-545c0 -25.333 9.83301 -46.5 29.5 -63.5s42.834 -25.5 69.501 -25.5c26 0 48.833 8.5 68.5 25.5s29.5 38.167 29.5 63.5zM222 179c0 -12 -3.83301 -22.833 -11.5 -32.5s-17.167 -14.5 -28.5 -14.5s-21 4.66699 -29 14s-12 20.333 -12 33v515
c0 12 3.83301 22.833 11.5 32.5s17.167 14.5 28.5 14.5s21 -4.66699 29 -14s12 -20.333 12 -33v-515z" />
    <glyph glyph-name="p" unicode="p" 
d="M352 421c0 -16 -1.99902 -29.6689 -5.99902 -41.002s-11.333 -22.666 -22 -33.999s-22 -18.5 -34 -21.5s-28 -4.5 -48 -4.5h-23h-8v-320h-60l-79 72v730h63c31.333 0 54.166 -1.16699 68.499 -3.5s28.333 -9.16602 42 -20.499s35.167 -33.333 64.5 -66l16.5 -19
c7 -8 10.833 -12.333 11.5 -13c6 -8 9.66699 -15.333 11 -22l3 -36v-201zM274.001 492.998v206c0 18 -2 32.333 -6 43s-11.667 20.667 -23 30c-15.333 12 -30.5 19.333 -45.5 22s-36.5 4 -64.5 4h-59v-722h56v318h10h30c22.667 0 38.667 1.83301 48 5.5
s18.333 10.167 27 19.5c18 20 27 44.667 27 74zM216.001 512.998v-12.999c0 -8.66699 -0.333008 -14.667 -1 -18c-1.33301 -5.33301 -4.16602 -11 -8.49902 -17s-9.5 -9.83301 -15.5 -11.5s-14.333 -2.5 -25 -2.5h-17h-15v290h15c14 0 25.167 -0.833008 33.5 -2.5
s16.166 -5.83398 23.499 -12.501c4.66699 -4 7.5 -9.33301 8.5 -16s1.5 -17 1.5 -31v-166z" />
    <glyph glyph-name="q" unicode="q" horiz-adv-x="488" 
d="M423 -18l-26 3c-34.667 6.66699 -63.667 23 -87 49l-8 -10c-7.33301 -9.33301 -14.833 -15.5 -22.5 -18.5s-17.834 -4.5 -30.501 -4.5c-2.66699 -0.666992 -7 -1 -13 -1c-24.667 0 -51.5 9.66699 -80.5 29s-51.5 42.666 -67.5 69.999
c-6.66699 11.333 -11.5 21.5 -14.5 30.5s-4.5 20.5 -4.5 34.5v545c0 26.667 9.83301 48.834 29.5 66.501s43.834 26.5 72.501 26.5c40.667 0 73 -17.333 97 -52l53 -59c3.33301 -3.33301 6.33301 -7 9 -11c6.66699 -8.66699 11 -17 13 -25l3 -30v-511l77 -73v-59zM344 57
l-0.999023 55c-8.66699 0 -16.334 1.83301 -23.001 5.5s-14.5 9.5 -23.5 17.5s-15.167 14.667 -18.5 20c-5.33301 8.66699 -8 18 -8 28v526c0 25.333 -9.83301 46.5 -29.5 63.5s-42.834 25.5 -69.501 25.5c-26 0 -48.833 -8.5 -68.5 -25.5s-29.5 -38.167 -29.5 -63.5v-545
c0 -25.333 9.83301 -46.5 29.5 -63.5s42.834 -25.5 69.501 -25.5c37.333 0 65.666 14 84.999 42l3 4l1 -4c8.66699 -30 28.334 -49 59.001 -57zM212.001 179c1.33301 -11.333 -2.16602 -22 -10.499 -32s-18.166 -15 -29.499 -15s-21 4.66699 -29 14s-12 20.333 -12 33v515
c0 12 3.83301 22.833 11.5 32.5s17.167 14.5 28.5 14.5s21 -4.66699 29 -14s12 -20.333 12 -33l-1 -449c-4.66699 4 -11.334 7.33301 -20.001 10h-15v-60h17c9.33301 -2.66699 15.666 -8 18.999 -16z" />
    <glyph glyph-name="r" unicode="r" horiz-adv-x="427" 
d="M362 0l-60 0.000976562l-79 72v264v18c0 11.333 -2.33301 19.666 -7 24.999c3.33301 -5.33301 5 -13.333 5 -24c-0.666992 -11.333 -1 -19.666 -1 -24.999v-330h-60l-79 72v730h63h21c16 0 31.167 -1.16699 45.5 -3.5s27 -7.5 38 -15.5s21.833 -18 32.5 -30
c1.33301 -2 3.33301 -4.33301 6 -7l48 -51c4.66699 -4.66699 9.16699 -10.5 13.5 -17.5s7.33301 -14.667 9 -23s2.5 -17.833 2.5 -28.5v-136v-12c0 -14.667 -1.66699 -25.667 -5 -33c-7.33301 -18.667 -24.333 -33.334 -51 -44.001l-7 -3l45 -43
c6.66699 -5.33301 11.667 -13 15 -23s5 -23 5 -39v-293zM283 76.001l-0.00195312 283.004v17c0 9.33301 -2 17.333 -6 24c-6.66699 10.667 -16 17.667 -28 21l-9 2l11 4c8.66699 3.33301 15 7.66602 19 12.999c2 2.66699 4.33301 6.66699 7 12
s4.33398 11.166 5.00098 17.499s1 14.166 1 23.499v206c0 29.333 -9.66699 53.666 -29 72.999c-11.333 11.333 -24 18.5 -38 21.5s-32.667 4.5 -56 4.5h-16h-59v-722h56v318h35c12.667 0 21.834 -0.5 27.501 -1.5s11 -4.66699 16 -11s7.5 -15.5 7.5 -27.5v-18v-260h56z
M224.998 513.005v-12.999c0 -8.66699 -0.333008 -14.667 -1 -18c-1.33301 -5.33301 -4.16602 -11 -8.49902 -17s-9.5 -9.83301 -15.5 -11.5s-14.333 -2.5 -25 -2.5h-17h-15v290h15c14 0 25.167 -0.833008 33.5 -2.5s16.166 -5.83398 23.499 -12.501
c4.66699 -4 7.5 -9.33301 8.5 -16s1.5 -17 1.5 -31v-166z" />
    <glyph glyph-name="s" unicode="s" 
d="M344 91c0 -26 -9.83496 -47.665 -29.502 -64.998s-43.167 -26 -70.5 -26c-17.333 0 -29.5 0.666992 -36.5 2s-14.5 5.66602 -22.5 12.999l-74 64c-14.667 11.333 -26.167 24.166 -34.5 38.499s-12.5 29.833 -12.5 46.5v179h64l77 -76v19c0 17.333 -1.33301 35 -4 53
c-5.33301 35.333 -21 70.666 -47 105.999c-47.333 64.667 -71.666 98 -72.999 100c-6 10 -10.167 20.833 -12.5 32.5s-3.5 23.5 -3.5 35.5v25v71c0 26.667 9.83301 48.834 29.5 66.501s43.834 26.5 72.501 26.5c22 0 42 -5.33301 60 -16c6 -3.33301 13 -9 21 -17l69 -82
c6.66699 -8 11 -13.667 13 -17c5.33301 -8 9 -15.667 11 -23l3 -27v-126h-60l-74 70v-13c0 -30.667 6.33301 -56.334 19 -77.001c32 -45.333 54.333 -78 67 -98c22 -34 37 -70 45 -108c1.33301 -4.66699 2 -10.167 2 -16.5s0.333008 -11.166 1 -14.499v-11v-135z
M265.998 568.002v140.999c0 25.333 -9.83301 46.5 -29.5 63.5s-42.834 25.5 -69.501 25.5c-26 0 -48.833 -8.5 -68.5 -25.5s-29.5 -38.167 -29.5 -63.5v-71v-25c0 -14 0.833008 -25.5 2.5 -34.5s6.16699 -19.5 13.5 -31.5c11.333 -20 29.333 -45.667 54 -77
c38 -48.667 60 -92.334 66 -131.001c1.33301 -9.33301 2.33301 -21.666 3 -36.999s1 -28 1 -38v-85c0 -13.333 -4.16699 -24.833 -12.5 -34.5s-18.5 -14.5 -30.5 -14.5s-22 5 -30 15s-12 21.333 -12 34v160h-56v-175c0 -25.333 9.5 -46.5 28.5 -63.5
s42.167 -25.5 69.5 -25.5c26.667 0 49.834 8.5 69.501 25.5s29.5 38.167 29.5 63.5v102v30c0 6.66699 -0.333008 14.5 -1 23.5s-1.33398 16.5 -2.00098 22.5c-5.33301 36.667 -20 71.834 -44 105.501l-71 99.5c-8.66699 14 -14.5 26.5 -17.5 37.5s-4.5 22.833 -4.5 35.5v18
v56c0 13.333 3.83301 24.833 11.5 34.5s17.834 14.5 30.501 14.5c12 0 22.167 -4.83301 30.5 -14.5s12.5 -21.167 12.5 -34.5v-126h56z" />
    <glyph glyph-name="t" unicode="t" horiz-adv-x="412" 
d="M354 670h-78v-670h-59l-79 72v597l-80 69v64h224l72 -72v-60zM278 742v56h-216v-56h80v-666h56v666h80z" />
    <glyph glyph-name="u" unicode="u" horiz-adv-x="443" 
d="M360 90c0 -25.333 -9.83203 -46.666 -29.499 -63.999s-42.834 -26 -69.501 -26c-17.333 0 -29.5 0.666992 -36.5 2s-14.5 5.66602 -22.5 12.999l-77 68c-28.667 22 -43 49 -43 81v638h64l77 -74v74h64l73 -70v-642zM283.001 164v634h-56v-619
c0 -13.333 -3.83301 -24.833 -11.5 -34.5s-17.834 -14.5 -30.501 -14.5c-12 0 -22.167 4.83301 -30.5 14.5s-12.5 21.167 -12.5 34.5v619h-56v-634c0 -25.333 9.83301 -46.5 29.5 -63.5s42.834 -25.5 69.501 -25.5c26 0 48.833 8.5 68.5 25.5s29.5 38.167 29.5 63.5z" />
    <glyph glyph-name="v" unicode="v" horiz-adv-x="404" 
d="M343 726l-50 -726h-98l-79 72l-52 730h64l71 -74l5 74h64zM264 798h-56l-40 -552h-4l-40 552h-56l53 -722h93z" />
    <glyph glyph-name="w" unicode="w" horiz-adv-x="575" 
d="M521 726l-49 -726h-98l-75 66l-10 -68h-100l-79 72l-52 732h64l71 -74l5 74h108l71 -75l5 75h64zM442 798h-56l-42 -554l-42 554h-100l-40 -552l-44 552h-56l53 -722h93l42 552l49 -552h93z" />
    <glyph glyph-name="x" unicode="x" horiz-adv-x="398" 
d="M341 0h-60l-80 73v-73h-60l-79 72l50 396l-50 334h64l65 -72l11 72h64l75 -76l-51 -332zM262 76l-50 392l50 330h-56l-42 -253l-42 253h-56l50 -330l-50 -392h56l43 318l41 -318h56z" />
    <glyph glyph-name="y" unicode="y" horiz-adv-x="396" 
d="M341 726l-70 -360v-366h-60l-79 72v369l-70 361h64l66 -66l10 66h64zM262 798h-56l-41 -260l-43 260h-56l70 -357v-365h56v365z" />
    <glyph glyph-name="z" unicode="z" horiz-adv-x="403" 
d="M349 726l-120 -590h32l74 -78v-58h-194l-79 72l121 594h-44l-77 72v64h214zM272 798h-206v-56h136l-136 -666h191v56h-122z" />
    <glyph glyph-name="braceleft" unicode="{" horiz-adv-x="265" 
d="M212 74h-156v726h156v-60h-96v-606h96v-60z" />
    <glyph glyph-name="bar" unicode="|" horiz-adv-x="215" 
d="M137 0h-62v800h62v-800z" />
    <glyph glyph-name="braceright" unicode="}" horiz-adv-x="265" 
d="M204 74h-156v60h96v606h-96v60h156v-726z" />
    <glyph glyph-name="asciitilde" unicode="~" horiz-adv-x="456" 
d="M424 705l-107 -70l-76 44l-74 -44h-46l-81 72l123 87h5l73 -49l63 33h4h53zM347 774h-41l-63 -34l-78 50l-112 -79h36l72 43h4l77 -47z" />
    <glyph glyph-name="nonbreakingspace" unicode="&#xa0;" horiz-adv-x="530" 
 />
    <glyph glyph-name="exclamdown" unicode="&#xa1;" horiz-adv-x="230" 
d="M179 475h-60l-79 72v64h64l75 -76v-60zM184 105l-10 -301h-60l-79 77l-10 256l10 302h64l75 -81zM100 551v56h-56v-56h56zM105 137l-10 298h-56l-10 -298l10 -252h56z" />
    <glyph glyph-name="cent" unicode="&#xa2;" horiz-adv-x="561" 
d="M512 189c-5.33301 -57.333 -28.6689 -104.166 -70.002 -140.499s-92.666 -54.5 -153.999 -54.5l-34 3l-41 -141h-53l45 154c-51.333 18.667 -89.333 52.334 -114 101.001c-22 43.333 -33 96 -33 158c0 87.333 22 158 66 212s103.667 81 179 81c20 0 39 -1.33301 57 -4
l32 112h50l-37 -131c27.333 -14.667 49.333 -35 66 -61c8 -12.667 15.167 -28.334 21.5 -47.001s11.166 -37 14.499 -55h-101c0.666992 6.66699 0.333984 13.667 -0.999023 21c-3.33301 10 -6 18.667 -8 26s-7.66699 16.666 -17 27.999l-106 -380
c5.33301 -1.33301 13.333 -2 24 -2c16.667 0 33.834 4.33301 51.501 13s31.5 23.5 41.5 44.5s15 41.833 15 62.5h106zM338.997 483c-13.333 2.66699 -27.333 4.00098 -42 4.00098c-44 0 -78.333 -22 -103 -66c-22 -39.333 -33 -86.333 -33 -141
c0 -48.667 3.66699 -86.334 11 -113.001c10 -38 28 -64.333 54 -79z" />
    <glyph glyph-name="sterling" unicode="&#xa3;" horiz-adv-x="641" 
d="M597 588l-111.002 -0.00195312c-3.33301 31.333 -17.666 56.333 -42.999 75c-21.333 16 -48.333 24 -81 24c-50.667 0 -86.334 -19 -107.001 -57c-14.667 -27.333 -22 -67.333 -22 -120v-62h150v-73h-150v-283h342l-2 -93h-520l2 95h72v282h-78v72h78v55
c0 78.667 16.667 142.334 50 191.001c40 58 99.667 87 179 87c86.667 0 150.334 -24 191.001 -72c24.667 -29.333 41.334 -69.666 50.001 -120.999z" />
    <glyph glyph-name="yen" unicode="&#xa5;" horiz-adv-x="727" 
d="M672 800l-189 -318h122v-60h-161l-41 -74v-46h203v-61h-204v-241h-72v242h-199v61h202v44l-43 76h-159v60h122l-189 317h88l214 -384l226 384h80z" />
    <glyph glyph-name="section" unicode="&#xa7;" horiz-adv-x="476" 
d="M429 182c2.66699 -11.333 3.99902 -23.001 3.99902 -35.001c0 -52.667 -26 -93 -78 -121c-42 -22.667 -89.333 -34 -142 -34c-34.667 0 -68 3.66699 -100 11c-10.667 2 -23.334 5.66699 -38.001 11v93c18.667 -9.33301 33.667 -16 45 -20
c35.333 -13.333 65.333 -20 90 -20c40.667 0 71 9.66699 91 29c16 15.333 24 34.666 24 57.999c0 6 -0.333008 10.333 -1 13c-3.33301 22 -23.666 41 -60.999 57c-16 6.66699 -48 16.667 -96 30c-32.667 10.667 -57 22 -73 34c-21.333 16 -33.5 33.5 -36.5 52.5
s-4.5 34.167 -4.5 45.5c0 38.667 12.667 70 38 94c28 26.667 56.667 40 86 40c-12 3.33301 -21.333 6.33301 -28 9c-41.333 18.667 -66 48.667 -74 90c-2 9.33301 -3 18.333 -3 27c0 44 20.833 80.833 62.5 110.5s90.167 44.5 145.5 44.5c30 0 58.667 -4 86 -12
c8.66699 -2.66699 19.334 -6.66699 32.001 -12v-79c-11.333 6.66699 -21.333 11.667 -30 15c-26.667 10 -57 15 -91 15c-22 0 -42.667 -6 -62 -18c-24 -15.333 -36 -35.666 -36 -60.999c0 -6 0.333008 -10.667 1 -14c3.33301 -18.667 15 -32.667 35 -42l79 -27l48 -16
c48.667 -20.667 77 -50.667 85 -90c2 -11.333 3 -21.333 3 -30c0 -44 -20.333 -80.333 -61 -109c-13.333 -9.33301 -34 -19.666 -62 -30.999c24 -5.33301 42 -11.333 54 -18c38 -20 60.667 -50 68 -90zM325.999 425.999c-4 22 -10.999 38.002 -20.999 48.002
c-14.667 14.667 -38 22 -70 22c-18.667 0 -35.334 -6.66699 -50.001 -20c-18 -16.667 -27 -39.334 -27 -68.001c0 -4 0.333008 -8.33301 1 -13s1 -8.33398 1 -11.001c4 -26 15.667 -44.667 35 -56c13.333 -8 29.666 -12 48.999 -12c26.667 0 47.334 8.66699 62.001 26
s22 38.333 22 63c0 4.66699 -0.666992 11.667 -2 21z" />
    <glyph glyph-name="dieresis" unicode="&#xa8;" horiz-adv-x="396" 
d="M314 716l-1 -60h-59l-64 60v-60h-60l-79 72v64h64l60 -62v62h64zM235 732v56h-56v-56h56zM111 732v56h-56v-56h56z" />
    <glyph glyph-name="copyright" unicode="&#xa9;" horiz-adv-x="866" 
d="M438 19c-120 0 -215.334 39.667 -286.001 119c-64 72 -96 159.667 -96 263c0 104 31.667 191.667 95 263c70.667 79.333 166.334 119 287.001 119c120 0 215.333 -39.667 286 -119c64 -72 96 -159.667 96 -263c0 -104 -31.667 -191.667 -95 -263
c-70 -79.333 -165.667 -119 -287 -119zM437.999 59c107.333 0 192.666 35.333 255.999 106c56.667 63.333 85 141.666 85 234.999c0 92 -28.333 170 -85 234c-63.333 71.333 -148.666 107 -255.999 107s-192.333 -35.333 -255 -106c-56.667 -64 -85 -142.333 -85 -235
c0 -93.333 28 -171.666 84 -234.999c62.667 -70.667 148 -106 256 -106zM624.999 323c-8.66699 -48.667 -31.168 -88 -67.501 -118s-79.833 -45 -130.5 -45c-67.333 0 -117 24.667 -149 74c-26.667 40.667 -40 95 -40 163c0 66.667 16.667 122.667 50 168
c37.333 50.667 88.333 76 153 76c44 0 82.5 -11.333 115.5 -34s53.167 -54.334 60.5 -95.001l4 -17h-46l-3 14c-6.66699 28.667 -22.667 51 -48 67s-53.666 24 -84.999 24c-53.333 0 -94 -21.333 -122 -64c-23.333 -36 -35 -82 -35 -138
c0 -57.333 8.66699 -100.666 26 -129.999c22.667 -39.333 63 -62.333 121 -69c3.33301 -0.666992 8.33301 -1 15 -1c32 0 61 12 87 36s42.667 53.667 50 89h44z" />
    <glyph glyph-name="ordfeminine" unicode="&#xaa;" horiz-adv-x="400" 
d="M289 313h-36l-48 43l-4 55l-13 14v-112h-36l-48 43l41 438h60l46 -46zM241 358l-38 433h-56l-40 -433h33l9 105h50l9 -105h33zM194 499h-39l17 189zM343 169h-215l-62 57v51h218l59 -60v-48zM280 229v45h-211v-45h211z" />
    <glyph glyph-name="guillemotleft" unicode="&#xab;" horiz-adv-x="602" 
d="M556 414l-158 -116l155 -108v-117l-220 173v108l223 166v-106zM277 414l-159 -116l156 -108v-117l-221 173v108l224 166v-106z" />
    <glyph glyph-name="logicalnot" unicode="&#xac;" horiz-adv-x="869" 
d="M818 0h-62v267h-701v59h763v-326z" />
    <glyph glyph-name="registered" unicode="&#xae;" horiz-adv-x="867" 
d="M438 18c-120 0 -215.334 39.667 -286.001 119c-64 72 -96 159.667 -96 263c0 104 31.667 191.667 95 263c70.667 79.333 166.334 119 287.001 119c120 0 215.333 -39.667 286 -119c64 -72 96 -159.667 96 -263c0 -104 -31.667 -191.667 -95 -263
c-70 -79.333 -165.667 -119 -287 -119zM437.999 58c107.333 0 192.666 35.333 255.999 106c56.667 63.333 85 141.666 85 234.999c0 92 -28.333 170 -85 234c-63.333 71.333 -148.666 107 -255.999 107s-192.333 -35.333 -255 -106c-56.667 -64 -85 -142.333 -85 -235
c0 -93.333 28 -171.666 84 -234.999c62.667 -70.667 148 -106 256 -106zM619.999 164l-47.9971 -0.00195312l-3 1c-6.66699 13.333 -10.667 46 -12 98s-14 85 -38 99c-6.66699 2.66699 -14.334 4.83398 -23.001 6.50098s-16.667 2.5 -24 2.5h-22h-123v-207h-45v459h169
c48.667 0 86.334 -7 113.001 -21c36 -19.333 54 -52 54 -98c0 -28.667 -6.33301 -52.334 -19 -71.001s-31.334 -33 -56.001 -43c15.333 -10 23.666 -15.333 24.999 -16c8 -6 14.5 -13.5 19.5 -22.5s8.5 -19.333 10.5 -31s3 -22.167 3 -31.5
c0 -7.33301 -0.166992 -14.666 -0.5 -21.999s-0.5 -14.666 -0.5 -21.999c0 -10.667 0.666992 -21.167 2 -31.5s4 -20.833 8 -31.5c1.33301 -4.66699 4.66602 -10.667 9.99902 -18zM575.002 498.998c0 32.667 -12.333 55.666 -37 68.999c-19.333 10.667 -46.333 16 -81 16
h-130v-173h130c34 0 60.667 5.66699 80 17c25.333 14.667 38 38.334 38 71.001z" />
    <glyph glyph-name="degree" unicode="&#xb0;" horiz-adv-x="425" 
d="M375 618c0 -44.667 -15.001 -82.667 -45.001 -114s-68.333 -47 -115 -47c-46 0 -84 16.333 -114 49s-45 71.334 -45 116.001c0 43.333 15.833 80.166 47.5 110.499s69.834 45.5 114.501 45.5c42 0 78.667 -15.667 110 -47s47 -69 47 -113zM332.999 621
c0 31.333 -11.501 58.166 -34.501 80.499s-50.5 33.5 -82.5 33.5s-59.5 -11.167 -82.5 -33.5s-34.5 -49.166 -34.5 -80.499c0 -32.667 11.5 -61.5 34.5 -86.5s50.5 -37.5 82.5 -37.5c32.667 0 60.334 12.333 83.001 37s34 53.667 34 87z" />
    <glyph glyph-name="plusminus" unicode="&#xb1;" horiz-adv-x="523" 
d="M477 313h-187v-186h-49v186h-186v53h186v187h50v-188h186v-52zM473 0h-427v39h427v-39z" />
    <glyph glyph-name="acute" unicode="&#xb4;" horiz-adv-x="314" 
d="M342 720l-188 -84l-114 110l157 85l70 -31zM256 800l-58 26l-148 -80l51 -20z" />
    <glyph glyph-name="mu" unicode="&#xb5;" horiz-adv-x="699" 
d="M654 111l-7.00098 -36.001c-6 -27.333 -23 -50.666 -51 -69.999c-25.333 -17.333 -50.333 -26 -75 -26c-4 0.666992 -7 1 -9 1c-26 4 -48.333 15.667 -67 35c-20.667 21.333 -31 45.666 -31 72.999l-28 -27c-22 -22 -46.5 -40.333 -73.5 -55s-49.5 -22 -67.5 -22
c-20.667 0 -42 4.66699 -64 14c-27.333 11.333 -48.666 28 -63.999 50v-41c0 -20.667 4 -42.334 12 -65.001c18 -50.667 27 -89 27 -115c0 -19.333 -5 -36.166 -15 -50.499s-23.333 -21.5 -40 -21.5c-16 0 -29.167 6.5 -39.5 19.5s-15.5 28.167 -15.5 45.5
c0 24 2.66699 45 8 63c16.667 56 25 85 25 87l3 30v556h94v-385c0 -30.667 9.66699 -58 29 -82s43.333 -36 72 -36c29.333 0 59 11.667 89 35c33.333 26 50 53.667 50 83v385h93v-434c0 -25.333 6.16699 -47.666 18.5 -66.999s28.5 -27 48.5 -23
c24.667 4.66699 40.667 21 48 49l9 30h21z" />
    <glyph glyph-name="paragraph" unicode="&#xb6;" horiz-adv-x="559" 
d="M454 -78l-64 0.000976562v818h-73v-818h-68v447c-44 9.33301 -76.667 20 -98 32c-65.333 36.667 -98 94 -98 172c0 71.333 19.5 127.166 58.5 167.499s94.167 60.5 165.5 60.5h177v-879z" />
    <glyph glyph-name="periodcentered" unicode="&#xb7;" horiz-adv-x="261" 
d="M202 320h-60l-79 72v64h64l75 -76v-60zM123 396v56h-56v-56h56z" />
    <glyph glyph-name="periodcentered" unicode="&#x2219;" horiz-adv-x="261" 
d="M202 320h-60l-79 72v64h64l75 -76v-60zM123 396v56h-56v-56h56z" />
    <glyph glyph-name="ordmasculine" unicode="&#xba;" horiz-adv-x="429" 
d="M278 363c0 -15.333 -5.99902 -28.334 -17.999 -39.001s-26 -16 -42 -16c-14 0 -22 0.333008 -24 1c-2.66699 0.666992 -6.33398 3.33398 -11.001 8.00098l-47 42c-16.667 11.333 -25 27.333 -25 48v327c0 16 6 29.333 18 40s26.333 16 43 16c10 0 20.333 -2.33301 31 -7
c3.33301 -1.33301 8 -4 14 -8l45 -53c4.66699 -4.66699 8.5 -10.667 11.5 -18s4.5 -15.333 4.5 -24v-317zM231.001 406.999v327c0 14.667 -5.83301 27.167 -17.5 37.5s-25.5 15.5 -41.5 15.5c-15.333 0 -29 -5 -41 -15s-18 -22.667 -18 -38v-327
c0 -15.333 5.83301 -28.166 17.5 -38.499s25.5 -15.5 41.5 -15.5s29.833 5.16699 41.5 15.5s17.5 23.166 17.5 38.499zM196.001 415.999c0 -18.667 -8.00098 -28 -24.001 -28s-24 9.33301 -24 28v309c0 18.667 8 28 24 28c6.66699 0 12.334 -2.66699 17.001 -8s7 -12 7 -20
v-309zM343 168.999h-215l-62 57v51h218l59 -60v-48zM280 228.999v45h-211v-45h211z" />
    <glyph glyph-name="guillemotright" unicode="&#xbb;" horiz-adv-x="610" 
d="M559 246l-220 -173v117l155 108l-158 116v106l223 -166v-108zM280 246l-221 -173v117l156 108l-159 116v106l224 -166v-108z" />
    <glyph glyph-name="questiondown" unicode="&#xbf;" horiz-adv-x="385" 
d="M268 475h-60l-79 72v64h64l75 -76v-60zM341 -98c0 -26 -9.83398 -47.834 -29.501 -65.501s-43.167 -26.5 -70.5 -26.5c-18 0 -30.833 1.66699 -38.5 5s-19.5 12 -35.5 26l-59 52c-31.333 18.667 -47 45.667 -47 81v91c0 22 0.5 38.5 1.5 49.5s4.66699 26.5 11 46.5
s12.5 35.667 18.5 47c10.667 21.333 20.667 50 30 86c3.33301 14 5 30 5 48v113h62l75 -76v-102c0 -21.333 -0.666992 -37.166 -2 -47.499s-5.16602 -24.833 -11.499 -43.5l-11.5 -34c-3.33301 -8.66699 -8.33301 -19.667 -15 -33h42l75 -75v-142zM188.999 550.999v56h-56
v-56h56zM261.999 -26.001l-0.00195312 141h-56v-126c0 -13.333 -4.16699 -24.833 -12.5 -34.5s-18.5 -14.5 -30.5 -14.5s-22 5 -30 15s-12 21.333 -12 34v76c0 5.33301 -0.166992 10.833 -0.5 16.5s-0.5 11.5 -0.5 17.5c0 12 0.333008 20.667 1 26
s3.33398 14.666 8.00098 27.999c7.33301 19.333 15.166 37.333 23.499 54s17.5 44.334 27.5 83.001c3.33301 16 5 33.333 5 52v109h-54v-109c0 -17.333 -1.66699 -33.666 -5 -48.999c-9.33301 -35.333 -15.666 -57.333 -18.999 -66l-31 -72
c-4.66699 -14 -7.66699 -26.833 -9 -38.5s-2 -24.834 -2 -39.501v-12v-91c0 -25.333 9.66699 -46.5 29 -63.5s42.333 -25.5 69 -25.5s49.834 8.5 69.501 25.5s29.5 38.167 29.5 63.5z" />
    <glyph glyph-name="Agrave" unicode="&#xc0;" 
d="M365 0h-60l-79 72l-7 92l-22 23v-187h-60l-79 72l67 730h101l76 -76zM286 76l-64 722h-93l-67 -722h56l15 174h83l14 -174h56zM207 310h-65l28 316zM339 860l-16 -20l-185 81l-82 80l73 42l135 -102zM260 938l-130 100l-64 -37l180 -79z" />
    <glyph glyph-name="Aacute" unicode="&#xc1;" horiz-adv-x="415" 
d="M362 0h-60l-79 72l-7 92l-22 23v-187h-60l-79 72l67 730h101l76 -76zM283 76l-64 722h-93l-67 -722h56l15 174h83l14 -174h56zM204 310h-65l28 316zM354 912l-188 -84l-114 110l157 85l70 -31zM268 992l-58 26l-148 -80l51 -20z" />
    <glyph glyph-name="Acircumflex" unicode="&#xc2;" horiz-adv-x="423" 
d="M372 849h-39l-76 44l-74 -44h-43l-85 72l97 84l52 1l99 -85zM291 925l-88 77h-50l-86 -77h38l72 43l81 -43h33zM369 0h-60l-79 72l-7 92l-22 23v-187h-60l-79 72l67 730h101l76 -76zM290 76l-64 722h-93l-67 -722h56l15 174h83l14 -174h56zM211 310h-65l28 316z" />
    <glyph glyph-name="Atilde" unicode="&#xc3;" horiz-adv-x="422" 
d="M369 0h-60l-79 72l-7 92l-22 23v-187h-60l-79 72l67 730h101l76 -76zM290 76l-64 722h-93l-67 -722h56l15 174h83l14 -174h56zM211 310h-65l28 316zM411 918l-107 -70l-76 44l-74 -44h-46l-81 72l123 87h5l73 -49l63 33h4h53zM334 987h-41l-63 -34l-78 50l-112 -79h36
l72 43h4l77 -47z" />
    <glyph glyph-name="Adieresis" unicode="&#xc4;" horiz-adv-x="425" 
d="M347 909l-1 -60h-59l-64 60v-60h-60l-79 72v64h64l60 -62v62h64zM268 925v56h-56v-56h56zM144 925v56h-56v-56h56zM369 0h-60l-79 72l-7 92l-22 23v-187h-60l-79 72l67 730h101l76 -76zM290 76l-64 722h-93l-67 -722h56l15 174h83l14 -174h56zM211 310h-65l28 316z" />
    <glyph glyph-name="Aring" unicode="&#xc5;" horiz-adv-x="419" 
d="M362 0h-60l-79 72l-7 92l-22 23v-187h-60l-79 72l67 730h101l76 -76zM283 76l-64 722h-93l-67 -722h56l15 174h83l14 -174h56zM204 310h-65l28 316zM270 848h-60l-79 72v64h64l75 -76v-60zM191 924v56h-56v-56h56z" />
    <glyph glyph-name="AE" unicode="&#xc6;" horiz-adv-x="594" 
d="M529 318h-97l-1 -182h23l74 -76v-60h-188l-78 72v92l-21 23l-21 -187h-60l-70 72l152 730h212l74 -78v-58h-96v-212h20l77 -74v-62zM450 76v56h-96v262h96v56h-96v292h96v56h-204l-152 -722h56l34 174h82v-174h184zM267 308h-69l68 320z" />
    <glyph glyph-name="Ccedilla" unicode="&#xc7;" horiz-adv-x="427" 
d="M353 91c0 -12 -2.16797 -22.668 -6.50098 -32.001s-11.166 -19 -20.499 -29c-4.66699 -5.33301 -12.667 -11 -24 -17s-19 -9 -23 -9v-66v-16.5c0 -5.66699 0.333008 -11.5 1 -17.5c0 -12.667 -1.83301 -21.5 -5.5 -26.5s-6.83398 -10.167 -9.50098 -15.5
c-6 -8 -13 -14 -21 -18l-10 -5l-112 110v6l8 8c6.66699 6.66699 10.667 11.667 12 15c2.66699 4.66699 4.33398 9.83398 5.00098 15.501s1 12.167 1 19.5v14v29l-36 35l-13 13c-17.333 17.333 -26 37.333 -26 60v545c0 26.667 10.167 48.834 30.5 66.501
s44.5 26.5 72.5 26.5c40.667 0 72 -16.333 94 -49l4 -4l53 -59c4.66699 -4.66699 9.16699 -9.83398 13.5 -15.501s7.5 -11.5 9.5 -17.5s3 -17.333 3 -34v-151h-60l-75 72l-1 -201h62l74 -71v-181zM274.999 163.999v175h-56v-160c0 -13.333 -3.83301 -24.833 -11.5 -34.5
s-17.834 -14.5 -30.501 -14.5c-12 0 -22.167 4.83301 -30.5 14.5s-12.5 21.167 -12.5 34.5v515c0 13.333 3.83301 24.833 11.5 34.5s17.834 14.5 30.501 14.5c12 0 22.167 -4.83301 30.5 -14.5s12.5 -21.167 12.5 -34.5v-146h56v161c0 25.333 -9.83301 46.5 -29.5 63.5
s-42.834 25.5 -69.501 25.5c-26 0 -48.833 -8.5 -68.5 -25.5s-29.5 -38.167 -29.5 -63.5v-545c0 -21.333 7.66699 -40.666 23 -57.999c4.66699 -4.66699 17 -11.667 37 -21c3.33301 -1.33301 8 -3.33301 14 -6v-52v-20v-11c-0.666992 -6 -2.5 -12 -5.5 -18
s-6.83301 -11.5 -11.5 -16.5s-7.66699 -8.16699 -9 -9.5l40 -38c6.66699 5.33301 12.334 10.333 17.001 15c10.667 10 17.167 18.667 19.5 26s3.5 16.666 3.5 27.999v10v87c4.66699 0.666992 8.66699 1.33398 12 2.00098c8.66699 3.33301 18.667 10.333 30 21
c18 19.333 27 39.666 27 60.999z" />
    <glyph glyph-name="Egrave" unicode="&#xc8;" horiz-adv-x="380" 
d="M320 871l-16 -20l-185 81l-82 80l73 42l135 -102zM241 949l-130 100l-64 -37l180 -79zM310 318h-97v-182h22l74 -76v-60h-156l-78 72v730h160l74 -78v-58h-96v-212h22l75 -74v-62zM231 76v56h-96v262h96v56h-96v292h96v56h-152v-722h152z" />
    <glyph glyph-name="Eacute" unicode="&#xc9;" horiz-adv-x="375" 
d="M347 921l-188 -84l-114 110l157 85l70 -31zM261 1001l-58 26l-148 -80l51 -20zM304 324h-97v-182h22l74 -76v-60h-156l-78 72v730h160l74 -78v-58h-96v-212h22l75 -74v-62zM225 82v56h-96v262h96v56h-96v292h96v56h-152v-722h152z" />
    <glyph glyph-name="Ecircumflex" unicode="&#xca;" horiz-adv-x="383" 
d="M334 837h-39l-76 44l-74 -44h-43l-85 72l97 84l52 1l99 -85zM253 913l-88 77h-50l-86 -77h38l72 43l81 -43h33zM310 318h-97v-182h22l74 -76v-60h-156l-78 72v730h160l74 -78v-58h-96v-212h22l75 -74v-62zM231 76v56h-96v262h96v56h-96v292h96v56h-152v-722h152z" />
    <glyph glyph-name="Edieresis" unicode="&#xcb;" horiz-adv-x="386" 
d="M312 898l-1 -60h-59l-64 60v-60h-60l-79 72v64h64l60 -62v62h64zM233 914v56h-56v-56h56zM109 914v56h-56v-56h56zM310 318h-97v-182h22l74 -76v-60h-156l-78 72v730h160l74 -78v-58h-96v-212h22l75 -74v-62zM231 76v56h-96v262h96v56h-96v292h96v56h-152v-722h152z" />
    <glyph glyph-name="Igrave" unicode="&#xcc;" horiz-adv-x="296" 
d="M301 850l-16 -20l-185 81l-82 80l73 42l135 -102zM222 928l-130 100l-64 -37l180 -79zM203 0h-60l-79 72v730h64l75 -76v-726zM124 76v722h-56v-722h56z" />
    <glyph glyph-name="Iacute" unicode="&#xcd;" horiz-adv-x="304" 
d="M284 926l-188 -84l-114 110l157 85l70 -31zM198 1006l-58 26l-148 -80l51 -20zM203 10h-60l-79 72v730h64l75 -76v-726zM124 86v722h-56v-722h56z" />
    <glyph glyph-name="Icircumflex" unicode="&#xce;" horiz-adv-x="288" 
d="M283 845h-39l-76 44l-74 -44h-43l-85 72l97 84l52 1l99 -85zM202 921l-88 77h-50l-86 -77h38l72 43l81 -43h33zM190 0h-60l-79 72v730h64l75 -76v-726zM111 76v722h-56v-722h56z" />
    <glyph glyph-name="Idieresis" unicode="&#xcf;" horiz-adv-x="312" 
d="M254 909l-1 -60h-59l-64 60v-60h-60l-79 72v64h64l60 -62v62h64zM175 925v56h-56v-56h56zM51 925v56h-56v-56h56zM202 0h-60l-79 72v730h64l75 -76v-726zM123 76v722h-56v-722h56z" />
    <glyph glyph-name="Ntilde" unicode="&#xd1;" horiz-adv-x="476" 
d="M434 918l-107 -70l-76 44l-74 -44h-46l-81 72l123 87h5l73 -49l63 33h4h53zM357 987h-41l-63 -34l-78 50l-112 -79h36l72 43h4l77 -47zM397 0h-98l-78 72l-8 52v-124h-60l-79 72v730h101l76 -76l7 -48v124h64l75 -76v-726zM318 76v722h-56v-556l-91 556h-93v-722h56v561
l91 -561h93z" />
    <glyph glyph-name="Ograve" unicode="&#xd2;" horiz-adv-x="436" 
d="M337 850l-16 -20l-185 81l-82 80l73 42l135 -102zM258 928l-130 100l-64 -37l180 -79zM358 91c0 -26 -9.83301 -47.667 -29.5 -65s-43.167 -26 -70.5 -26c-17.333 0 -29.5 0.666992 -36.5 2s-14.5 5.66602 -22.5 12.999l-77 69c-28.667 19.333 -43 46 -43 80v545
c0 26.667 9.83301 48.834 29.5 66.501s43.834 26.5 72.501 26.5c21.333 0 42 -5.33301 62 -16c3.33301 -1.33301 7.66602 -4.33301 12.999 -9l75 -87c5.33301 -6 9.5 -11.167 12.5 -15.5s6.16699 -11.5 9.5 -21.5s5 -21 5 -33v-529zM280 164v545
c0 25.333 -9.83301 46.5 -29.5 63.5s-42.834 25.5 -69.501 25.5c-26 0 -48.833 -8.5 -68.5 -25.5s-29.5 -38.167 -29.5 -63.5v-545c0 -25.333 9.83301 -46.5 29.5 -63.5s42.834 -25.5 69.501 -25.5c26 0 48.833 8.5 68.5 25.5s29.5 38.167 29.5 63.5zM222 179
c0 -12 -3.83301 -22.833 -11.5 -32.5s-17.167 -14.5 -28.5 -14.5s-21 4.66699 -29 14s-12 20.333 -12 33v515c0 12 3.83301 22.833 11.5 32.5s17.167 14.5 28.5 14.5s21 -4.66699 29 -14s12 -20.333 12 -33v-515z" />
    <glyph glyph-name="Oacute" unicode="&#xd3;" horiz-adv-x="437" 
d="M355 916l-188 -84l-114 110l157 85l70 -31zM269 996l-58 26l-148 -80l51 -20zM346 91c0 -26 -9.83301 -47.667 -29.5 -65s-43.167 -26 -70.5 -26c-17.333 0 -29.5 0.666992 -36.5 2s-14.5 5.66602 -22.5 12.999l-77 69c-28.667 19.333 -43 46 -43 80v545
c0 26.667 9.83301 48.834 29.5 66.501s43.834 26.5 72.501 26.5c21.333 0 42 -5.33301 62 -16c3.33301 -1.33301 7.66602 -4.33301 12.999 -9l75 -87c5.33301 -6 9.5 -11.167 12.5 -15.5s6.16699 -11.5 9.5 -21.5s5 -21 5 -33v-529zM268 164v545
c0 25.333 -9.83301 46.5 -29.5 63.5s-42.834 25.5 -69.501 25.5c-26 0 -48.833 -8.5 -68.5 -25.5s-29.5 -38.167 -29.5 -63.5v-545c0 -25.333 9.83301 -46.5 29.5 -63.5s42.834 -25.5 69.501 -25.5c26 0 48.833 8.5 68.5 25.5s29.5 38.167 29.5 63.5zM210 179
c0 -12 -3.83301 -22.833 -11.5 -32.5s-17.167 -14.5 -28.5 -14.5s-21 4.66699 -29 14s-12 20.333 -12 33v515c0 12 3.83301 22.833 11.5 32.5s17.167 14.5 28.5 14.5s21 -4.66699 29 -14s12 -20.333 12 -33v-515z" />
    <glyph glyph-name="Ocircumflex" unicode="&#xd4;" horiz-adv-x="431" 
d="M360 841h-39l-76 44l-74 -44h-43l-85 72l97 84l52 1l99 -85zM279 917l-88 77h-50l-86 -77h38l72 43l81 -43h33zM358 91c0 -26 -9.83301 -47.667 -29.5 -65s-43.167 -26 -70.5 -26c-17.333 0 -29.5 0.666992 -36.5 2s-14.5 5.66602 -22.5 12.999l-77 69
c-28.667 19.333 -43 46 -43 80v545c0 26.667 9.83301 48.834 29.5 66.501s43.834 26.5 72.501 26.5c21.333 0 42 -5.33301 62 -16c3.33301 -1.33301 7.66602 -4.33301 12.999 -9l75 -87c5.33301 -6 9.5 -11.167 12.5 -15.5s6.16699 -11.5 9.5 -21.5s5 -21 5 -33v-529z
M280 164v545c0 25.333 -9.83301 46.5 -29.5 63.5s-42.834 25.5 -69.501 25.5c-26 0 -48.833 -8.5 -68.5 -25.5s-29.5 -38.167 -29.5 -63.5v-545c0 -25.333 9.83301 -46.5 29.5 -63.5s42.834 -25.5 69.501 -25.5c26 0 48.833 8.5 68.5 25.5s29.5 38.167 29.5 63.5zM222 179
c0 -12 -3.83301 -22.833 -11.5 -32.5s-17.167 -14.5 -28.5 -14.5s-21 4.66699 -29 14s-12 20.333 -12 33v515c0 12 3.83301 22.833 11.5 32.5s17.167 14.5 28.5 14.5s21 -4.66699 29 -14s12 -20.333 12 -33v-515z" />
    <glyph glyph-name="Otilde" unicode="&#xd5;" horiz-adv-x="426" 
d="M407 918l-107 -70l-76 44l-74 -44h-46l-81 72l123 87h5l73 -49l63 33h4h53zM330 987h-41l-63 -34l-78 50l-112 -79h36l72 43h4l77 -47zM352 91c0 -26 -9.83301 -47.667 -29.5 -65s-43.167 -26 -70.5 -26c-17.333 0 -29.5 0.666992 -36.5 2s-14.5 5.66602 -22.5 12.999
l-77 69c-28.667 19.333 -43 46 -43 80v545c0 26.667 9.83301 48.834 29.5 66.501s43.834 26.5 72.501 26.5c21.333 0 42 -5.33301 62 -16c3.33301 -1.33301 7.66602 -4.33301 12.999 -9l75 -87c5.33301 -6 9.5 -11.167 12.5 -15.5s6.16699 -11.5 9.5 -21.5s5 -21 5 -33v-529
zM274 164v545c0 25.333 -9.83301 46.5 -29.5 63.5s-42.834 25.5 -69.501 25.5c-26 0 -48.833 -8.5 -68.5 -25.5s-29.5 -38.167 -29.5 -63.5v-545c0 -25.333 9.83301 -46.5 29.5 -63.5s42.834 -25.5 69.501 -25.5c26 0 48.833 8.5 68.5 25.5s29.5 38.167 29.5 63.5zM216 179
c0 -12 -3.83301 -22.833 -11.5 -32.5s-17.167 -14.5 -28.5 -14.5s-21 4.66699 -29 14s-12 20.333 -12 33v515c0 12 3.83301 22.833 11.5 32.5s17.167 14.5 28.5 14.5s21 -4.66699 29 -14s12 -20.333 12 -33v-515z" />
    <glyph glyph-name="Odieresis" unicode="&#xd6;" horiz-adv-x="428" 
d="M339 913l-1 -60h-59l-64 60v-60h-60l-79 72v64h64l60 -62v62h64zM260 929v56h-56v-56h56zM136 929v56h-56v-56h56zM352 91c0 -26 -9.83301 -47.667 -29.5 -65s-43.167 -26 -70.5 -26c-17.333 0 -29.5 0.666992 -36.5 2s-14.5 5.66602 -22.5 12.999l-77 69
c-28.667 19.333 -43 46 -43 80v545c0 26.667 9.83301 48.834 29.5 66.501s43.834 26.5 72.501 26.5c21.333 0 42 -5.33301 62 -16c3.33301 -1.33301 7.66602 -4.33301 12.999 -9l75 -87c5.33301 -6 9.5 -11.167 12.5 -15.5s6.16699 -11.5 9.5 -21.5s5 -21 5 -33v-529z
M274 164v545c0 25.333 -9.83301 46.5 -29.5 63.5s-42.834 25.5 -69.501 25.5c-26 0 -48.833 -8.5 -68.5 -25.5s-29.5 -38.167 -29.5 -63.5v-545c0 -25.333 9.83301 -46.5 29.5 -63.5s42.834 -25.5 69.501 -25.5c26 0 48.833 8.5 68.5 25.5s29.5 38.167 29.5 63.5zM216 179
c0 -12 -3.83301 -22.833 -11.5 -32.5s-17.167 -14.5 -28.5 -14.5s-21 4.66699 -29 14s-12 20.333 -12 33v515c0 12 3.83301 22.833 11.5 32.5s17.167 14.5 28.5 14.5s21 -4.66699 29 -14s12 -20.333 12 -33v-515z" />
    <glyph glyph-name=".null" unicode="&#xd7;" horiz-adv-x="0" 
 />
    <glyph glyph-name=".null" unicode="&#x141;" horiz-adv-x="0" 
 />
    <glyph glyph-name=".null" unicode="&#xfd;" horiz-adv-x="0" 
 />
    <glyph glyph-name="Oslash" unicode="&#xd8;" horiz-adv-x="516" 
d="M445 724l-62.002 -162.001v-471c0 -26 -9.83301 -47.667 -29.5 -65s-43.167 -26 -70.5 -26c-25.333 0 -43.666 2.66699 -54.999 8c-18.667 8.66699 -43.667 29.334 -75 62.001l-31 -70h-60l-47 70l94 213v424c0 26 10.333 48 31 66s44.334 27 71.001 27
c20 0 39 -5.33301 57 -16l46 -36l22 52h67zM396.998 795.999l-57.002 0.00292969l-38 -87v10c0 7.33301 -1.16699 14.166 -3.5 20.499s-5.16602 12.166 -8.49902 17.499c-4.66699 5.33301 -7.66699 9 -9 11c-18.667 18.667 -42 28 -70 28c-26 0 -48.833 -8.5 -68.5 -25.5
s-29.5 -38.167 -29.5 -63.5v-425l-92 -208h56l36 81l1 -7c2.66699 -22.667 13.334 -40.834 32.001 -54.501s40.667 -20.5 66 -20.5c26 0 48.167 8.5 66.5 25.5s27.5 38.167 27.5 63.5v428zM251.996 600.002l-81 -184v276c0 12 3.83301 22.833 11.5 32.5
s17.167 14.5 28.5 14.5s21 -4.66699 29 -14s12 -20.333 12 -33v-92zM252.996 179.002c0 -12.667 -4.16699 -24.167 -12.5 -34.5s-18.166 -15.5 -29.499 -15.5c-10.667 0 -19.834 5.16699 -27.501 15.5s-11.5 21.833 -11.5 34.5v100l81 188v-288z" />
    <glyph glyph-name="Ugrave" unicode="&#xd9;" horiz-adv-x="427" 
d="M324 854l-16 -20l-185 81l-82 80l73 42l135 -102zM245 932l-130 100l-64 -37l180 -79zM350 90c0 -25.333 -9.83203 -46.666 -29.499 -63.999s-42.834 -26 -69.501 -26c-17.333 0 -29.5 0.666992 -36.5 2s-14.5 5.66602 -22.5 12.999l-77 68c-28.667 22 -43 49 -43 81v638
h64l77 -74v74h64l73 -70v-642zM273.001 164v634h-56v-619c0 -13.333 -3.83301 -24.833 -11.5 -34.5s-17.834 -14.5 -30.501 -14.5c-12 0 -22.167 4.83301 -30.5 14.5s-12.5 21.167 -12.5 34.5v619h-56v-634c0 -25.333 9.83301 -46.5 29.5 -63.5s42.834 -25.5 69.501 -25.5
c26 0 48.833 8.5 68.5 25.5s29.5 38.167 29.5 63.5z" />
    <glyph glyph-name="Uacute" unicode="&#xda;" horiz-adv-x="431" 
d="M381 921l-188 -84l-114 110l157 85l70 -31zM295 1001l-58 26l-148 -80l51 -20zM356 90c0 -25.333 -9.83203 -46.666 -29.499 -63.999s-42.834 -26 -69.501 -26c-17.333 0 -29.5 0.666992 -36.5 2s-14.5 5.66602 -22.5 12.999l-77 68c-28.667 22 -43 49 -43 81v638h64
l77 -74v74h64l73 -70v-642zM279.001 164v634h-56v-619c0 -13.333 -3.83301 -24.833 -11.5 -34.5s-17.834 -14.5 -30.501 -14.5c-12 0 -22.167 4.83301 -30.5 14.5s-12.5 21.167 -12.5 34.5v619h-56v-634c0 -25.333 9.83301 -46.5 29.5 -63.5s42.834 -25.5 69.501 -25.5
c26 0 48.833 8.5 68.5 25.5s29.5 38.167 29.5 63.5z" />
    <glyph glyph-name="Ucircumflex" unicode="&#xdb;" horiz-adv-x="447" 
d="M374 845h-39l-76 44l-74 -44h-43l-85 72l97 84l52 1l99 -85zM293 921l-88 77h-50l-86 -77h38l72 43l81 -43h33zM359 90c0 -25.333 -9.83203 -46.666 -29.499 -63.999s-42.834 -26 -69.501 -26c-17.333 0 -29.5 0.666992 -36.5 2s-14.5 5.66602 -22.5 12.999l-77 68
c-28.667 22 -43 49 -43 81v638h64l77 -74v74h64l73 -70v-642zM282.001 164v634h-56v-619c0 -13.333 -3.83301 -24.833 -11.5 -34.5s-17.834 -14.5 -30.501 -14.5c-12 0 -22.167 4.83301 -30.5 14.5s-12.5 21.167 -12.5 34.5v619h-56v-634
c0 -25.333 9.83301 -46.5 29.5 -63.5s42.834 -25.5 69.501 -25.5c26 0 48.833 8.5 68.5 25.5s29.5 38.167 29.5 63.5z" />
    <glyph glyph-name="Udieresis" unicode="&#xdc;" horiz-adv-x="437" 
d="M340 909l-1 -60h-59l-64 60v-60h-60l-79 72v64h64l60 -62v62h64zM261 925v56h-56v-56h56zM137 925v56h-56v-56h56zM360 90c0 -25.333 -9.83203 -46.666 -29.499 -63.999s-42.834 -26 -69.501 -26c-17.333 0 -29.5 0.666992 -36.5 2s-14.5 5.66602 -22.5 12.999l-77 68
c-28.667 22 -43 49 -43 81v638h64l77 -74v74h64l73 -70v-642zM283.001 164v634h-56v-619c0 -13.333 -3.83301 -24.833 -11.5 -34.5s-17.834 -14.5 -30.501 -14.5c-12 0 -22.167 4.83301 -30.5 14.5s-12.5 21.167 -12.5 34.5v619h-56v-634
c0 -25.333 9.83301 -46.5 29.5 -63.5s42.834 -25.5 69.501 -25.5c26 0 48.833 8.5 68.5 25.5s29.5 38.167 29.5 63.5z" />
    <glyph glyph-name="germandbls" unicode="&#xdf;" horiz-adv-x="444" 
d="M358 101c0 -17.333 -2.16797 -31.6641 -6.50098 -42.9971s-12.833 -22.5 -25.5 -33.5s-27.5 -17.833 -44.5 -20.5s-39.833 -4 -68.5 -4h-56l-79 71v732h63c28.667 0 51 -1.33301 67 -4s31.333 -9.66699 46 -21l14 -12l62 -64c4 -4 9 -11 15 -21s9.33301 -17.333 10 -22
s1.33398 -12 2.00098 -22s1 -15.333 1 -16v-131v-12c0 -14.667 -1.66699 -25.667 -5 -33c-7.33301 -18.667 -24.333 -33.334 -51 -44.001l-7 -3l45 -43c6 -4.66699 10.5 -10.834 13.5 -18.501s4.5 -16.834 4.5 -27.501v-16v-192zM279.999 176.002l-0.000976562 191.996
c0 6.66699 -0.166992 13.334 -0.5 20.001s-2.5 14.334 -6.5 23.001s-13 15 -27 19l-17 5l17 5c7.33301 2 12.833 4.5 16.5 7.5s7.5 7.66699 11.5 14s6 16.5 6 30.5v13v195c0 34.667 -9.33301 59.334 -28 74.001c-13.333 10.667 -28.666 17.5 -45.999 20.5s-39 4.5 -65 4.5
h-59v-724h56v669h17c13.333 0 25 -1.16699 35 -3.5s17.667 -6.5 23 -12.5s8.5 -12 9.5 -18s1.5 -16 1.5 -30v-164v-12c0 -14.667 -2.16699 -24.667 -6.5 -30s-9.33301 -9.33301 -15 -12s-11.167 -4 -16.5 -4v-53c3.33301 0 8 -1.16699 14 -3.5
s10.833 -5.66602 14.5 -9.99902s6.16699 -9.33301 7.5 -15s2 -11.167 2 -16.5v-15v-150c0.666992 -4.66699 1 -9.33398 1 -14.001c0 -6.66699 -0.833008 -13.167 -2.5 -19.5s-4.16699 -11.166 -7.5 -14.499c-6.66699 -6.66699 -13 -10.834 -19 -12.501
s-9.33301 -2.5 -10 -2.5h-10v-56h9c8.66699 0 19.5 2 32.5 6s24.5 10.667 34.5 20s17.167 19.833 21.5 31.5s6.5 25.834 6.5 42.501z" />
    <glyph glyph-name="agrave" unicode="&#xe0;" 
d="M365 0h-60l-79 72l-7 92l-22 23v-187h-60l-79 72l67 730h101l76 -76zM286 76l-64 722h-93l-67 -722h56l15 174h83l14 -174h56zM207 310h-65l28 316zM335 852l-16 -20l-185 81l-82 80l73 42l135 -102zM256 930l-130 100l-64 -37l180 -79z" />
    <glyph glyph-name="aacute" unicode="&#xe1;" horiz-adv-x="415" 
d="M362 0h-60l-79 72l-7 92l-22 23v-187h-60l-79 72l67 730h101l76 -76zM283 76l-64 722h-93l-67 -722h56l15 174h83l14 -174h56zM204 310h-65l28 316zM354 912l-188 -84l-114 110l157 85l70 -31zM268 992l-58 26l-148 -80l51 -20z" />
    <glyph glyph-name="acircumflex" unicode="&#xe2;" horiz-adv-x="423" 
d="M372 849h-39l-76 44l-74 -44h-43l-85 72l97 84l52 1l99 -85zM291 925l-88 77h-50l-86 -77h38l72 43l81 -43h33zM369 0h-60l-79 72l-7 92l-22 23v-187h-60l-79 72l67 730h101l76 -76zM290 76l-64 722h-93l-67 -722h56l15 174h83l14 -174h56zM211 310h-65l28 316z" />
    <glyph glyph-name="atilde" unicode="&#xe3;" horiz-adv-x="422" 
d="M369 0h-60l-79 72l-7 92l-22 23v-187h-60l-79 72l67 730h101l76 -76zM290 76l-64 722h-93l-67 -722h56l15 174h83l14 -174h56zM211 310h-65l28 316zM411 914l-107 -70l-76 44l-74 -44h-46l-81 72l123 87h5l73 -49l63 33h4h53zM334 983h-41l-63 -34l-78 50l-112 -79h36
l72 43h4l77 -47z" />
    <glyph glyph-name="adieresis" unicode="&#xe4;" horiz-adv-x="425" 
d="M343 913l-1 -60h-59l-64 60v-60h-60l-79 72v64h64l60 -62v62h64zM264 929v56h-56v-56h56zM140 929v56h-56v-56h56zM369 0h-60l-79 72l-7 92l-22 23v-187h-60l-79 72l67 730h101l76 -76zM290 76l-64 722h-93l-67 -722h56l15 174h83l14 -174h56zM211 310h-65l28 316z" />
    <glyph glyph-name="aring" unicode="&#xe5;" horiz-adv-x="419" 
d="M362 0h-60l-79 72l-7 92l-22 23v-187h-60l-79 72l67 730h101l76 -76zM283 76l-64 722h-93l-67 -722h56l15 174h83l14 -174h56zM204 310h-65l28 316zM270 848h-60l-79 72v64h64l75 -76v-60zM191 924v56h-56v-56h56z" />
    <glyph glyph-name="ae" unicode="&#xe6;" horiz-adv-x="594" 
d="M529 318h-97l-1 -182h23l74 -76v-60h-188l-78 72v92l-21 23l-21 -187h-60l-70 72l152 730h212l74 -78v-58h-96v-212h20l77 -74v-62zM450 76v56h-96v262h96v56h-96v292h96v56h-204l-152 -722h56l34 174h82v-174h184zM267 308h-69l68 320z" />
    <glyph glyph-name="ccedilla" unicode="&#xe7;" horiz-adv-x="424" 
d="M353 91c0 -12 -2.16797 -22.668 -6.50098 -32.001s-11.166 -19 -20.499 -29c-4.66699 -5.33301 -12.667 -11 -24 -17s-19 -9 -23 -9v-66v-16.5c0 -5.66699 0.333008 -11.5 1 -17.5c0 -12.667 -1.83301 -21.5 -5.5 -26.5s-6.83398 -10.167 -9.50098 -15.5
c-6 -8 -13 -14 -21 -18l-10 -5l-112 110v6l8 8c6.66699 6.66699 10.667 11.667 12 15c2.66699 4.66699 4.33398 9.83398 5.00098 15.501s1 12.167 1 19.5v14v29l-36 35l-13 13c-17.333 17.333 -26 37.333 -26 60v545c0 26.667 10.167 48.834 30.5 66.501
s44.5 26.5 72.5 26.5c40.667 0 72 -16.333 94 -49l4 -4l53 -59c4.66699 -4.66699 9.16699 -9.83398 13.5 -15.501s7.5 -11.5 9.5 -17.5s3 -17.333 3 -34v-151h-60l-75 72l-1 -201h62l74 -71v-181zM274.999 163.999v175h-56v-160c0 -13.333 -3.83301 -24.833 -11.5 -34.5
s-17.834 -14.5 -30.501 -14.5c-12 0 -22.167 4.83301 -30.5 14.5s-12.5 21.167 -12.5 34.5v515c0 13.333 3.83301 24.833 11.5 34.5s17.834 14.5 30.501 14.5c12 0 22.167 -4.83301 30.5 -14.5s12.5 -21.167 12.5 -34.5v-146h56v161c0 25.333 -9.83301 46.5 -29.5 63.5
s-42.834 25.5 -69.501 25.5c-26 0 -48.833 -8.5 -68.5 -25.5s-29.5 -38.167 -29.5 -63.5v-545c0 -21.333 7.66699 -40.666 23 -57.999c4.66699 -4.66699 17 -11.667 37 -21c3.33301 -1.33301 8 -3.33301 14 -6v-52v-20v-11c-0.666992 -6 -2.5 -12 -5.5 -18
s-6.83301 -11.5 -11.5 -16.5s-7.66699 -8.16699 -9 -9.5l40 -38c6.66699 5.33301 12.334 10.333 17.001 15c10.667 10 17.167 18.667 19.5 26s3.5 16.666 3.5 27.999v10v87c4.66699 0.666992 8.66699 1.33398 12 2.00098c8.66699 3.33301 18.667 10.333 30 21
c18 19.333 27 39.666 27 60.999z" />
    <glyph glyph-name="egrave" unicode="&#xe8;" horiz-adv-x="380" 
d="M308 850l-16 -20l-185 81l-82 80l73 42l135 -102zM229 928l-130 100l-64 -37l180 -79zM310 318h-97v-182h22l74 -76v-60h-156l-78 72v730h160l74 -78v-58h-96v-212h22l75 -74v-62zM231 76v56h-96v262h96v56h-96v292h96v56h-152v-722h152z" />
    <glyph glyph-name="eacute" unicode="&#xe9;" horiz-adv-x="375" 
d="M334 921l-188 -84l-114 110l157 85l70 -31zM248 1001l-58 26l-148 -80l51 -20zM304 318h-97v-182h22l74 -76v-60h-156l-78 72v730h160l74 -78v-58h-96v-212h22l75 -74v-62zM225 76v56h-96v262h96v56h-96v292h96v56h-152v-722h152z" />
    <glyph glyph-name="ecircumflex" unicode="&#xea;" horiz-adv-x="383" 
d="M338 837h-39l-76 44l-74 -44h-43l-85 72l97 84l52 1l99 -85zM257 913l-88 77h-50l-86 -77h38l72 43l81 -43h33zM310 318h-97v-182h22l74 -76v-60h-156l-78 72v730h160l74 -78v-58h-96v-212h22l75 -74v-62zM231 76v56h-96v262h96v56h-96v292h96v56h-152v-722h152z" />
    <glyph glyph-name="edieresis" unicode="&#xeb;" horiz-adv-x="386" 
d="M316 898l-1 -60h-59l-64 60v-60h-60l-79 72v64h64l60 -62v62h64zM237 914v56h-56v-56h56zM113 914v56h-56v-56h56zM310 318h-97v-182h22l74 -76v-60h-156l-78 72v730h160l74 -78v-58h-96v-212h22l75 -74v-62zM231 76v56h-96v262h96v56h-96v292h96v56h-152v-722h152z" />
    <glyph glyph-name="igrave" unicode="&#xec;" horiz-adv-x="296" 
d="M281 850l-16 -20l-185 81l-82 80l73 42l135 -102zM202 928l-130 100l-64 -37l180 -79zM203 0h-60l-79 72v730h64l75 -76v-726zM124 76v722h-56v-722h56z" />
    <glyph glyph-name="iacute" unicode="&#xed;" horiz-adv-x="304" 
d="M288 916l-188 -84l-114 110l157 85l70 -31zM202 996l-58 26l-148 -80l51 -20zM207 0h-60l-79 72v730h64l75 -76v-726zM128 76v722h-56v-722h56z" />
    <glyph glyph-name="icircumflex" unicode="&#xee;" horiz-adv-x="288" 
d="M283 845h-39l-76 44l-74 -44h-43l-85 72l97 84l52 1l99 -85zM202 921l-88 77h-50l-86 -77h38l72 43l81 -43h33zM190 0h-60l-79 72v730h64l75 -76v-726zM111 76v722h-56v-722h56z" />
    <glyph glyph-name="idieresis" unicode="&#xef;" horiz-adv-x="312" 
d="M266 909l-1 -60h-59l-64 60v-60h-60l-79 72v64h64l60 -62v62h64zM187 925v56h-56v-56h56zM63 925v56h-56v-56h56zM202 0h-60l-79 72v730h64l75 -76v-726zM123 76v722h-56v-722h56z" />
    <glyph glyph-name="ntilde" unicode="&#xf1;" horiz-adv-x="476" 
d="M414 915l-107 -70l-76 44l-74 -44h-46l-81 72l123 87h5l73 -49l63 33h4h53zM337 984h-41l-63 -34l-78 50l-112 -79h36l72 43h4l77 -47zM397 0h-98l-78 72l-8 52v-124h-60l-79 72v730h101l76 -76l7 -48v124h64l75 -76v-726zM318 76v722h-56v-556l-91 556h-93v-722h56v561
l91 -561h93z" />
    <glyph glyph-name="ograve" unicode="&#xf2;" horiz-adv-x="436" 
d="M337 850l-16 -20l-185 81l-82 80l73 42l135 -102zM258 928l-130 100l-64 -37l180 -79zM358 91c0 -26 -9.83301 -47.667 -29.5 -65s-43.167 -26 -70.5 -26c-17.333 0 -29.5 0.666992 -36.5 2s-14.5 5.66602 -22.5 12.999l-77 69c-28.667 19.333 -43 46 -43 80v545
c0 26.667 9.83301 48.834 29.5 66.501s43.834 26.5 72.501 26.5c21.333 0 42 -5.33301 62 -16c3.33301 -1.33301 7.66602 -4.33301 12.999 -9l75 -87c5.33301 -6 9.5 -11.167 12.5 -15.5s6.16699 -11.5 9.5 -21.5s5 -21 5 -33v-529zM280 164v545
c0 25.333 -9.83301 46.5 -29.5 63.5s-42.834 25.5 -69.501 25.5c-26 0 -48.833 -8.5 -68.5 -25.5s-29.5 -38.167 -29.5 -63.5v-545c0 -25.333 9.83301 -46.5 29.5 -63.5s42.834 -25.5 69.501 -25.5c26 0 48.833 8.5 68.5 25.5s29.5 38.167 29.5 63.5zM222 179
c0 -12 -3.83301 -22.833 -11.5 -32.5s-17.167 -14.5 -28.5 -14.5s-21 4.66699 -29 14s-12 20.333 -12 33v515c0 12 3.83301 22.833 11.5 32.5s17.167 14.5 28.5 14.5s21 -4.66699 29 -14s12 -20.333 12 -33v-515z" />
    <glyph glyph-name="oacute" unicode="&#xf3;" horiz-adv-x="437" 
d="M355 916l-188 -84l-114 110l157 85l70 -31zM269 996l-58 26l-148 -80l51 -20zM346 91c0 -26 -9.83301 -47.667 -29.5 -65s-43.167 -26 -70.5 -26c-17.333 0 -29.5 0.666992 -36.5 2s-14.5 5.66602 -22.5 12.999l-77 69c-28.667 19.333 -43 46 -43 80v545
c0 26.667 9.83301 48.834 29.5 66.501s43.834 26.5 72.501 26.5c21.333 0 42 -5.33301 62 -16c3.33301 -1.33301 7.66602 -4.33301 12.999 -9l75 -87c5.33301 -6 9.5 -11.167 12.5 -15.5s6.16699 -11.5 9.5 -21.5s5 -21 5 -33v-529zM268 164v545
c0 25.333 -9.83301 46.5 -29.5 63.5s-42.834 25.5 -69.501 25.5c-26 0 -48.833 -8.5 -68.5 -25.5s-29.5 -38.167 -29.5 -63.5v-545c0 -25.333 9.83301 -46.5 29.5 -63.5s42.834 -25.5 69.501 -25.5c26 0 48.833 8.5 68.5 25.5s29.5 38.167 29.5 63.5zM210 179
c0 -12 -3.83301 -22.833 -11.5 -32.5s-17.167 -14.5 -28.5 -14.5s-21 4.66699 -29 14s-12 20.333 -12 33v515c0 12 3.83301 22.833 11.5 32.5s17.167 14.5 28.5 14.5s21 -4.66699 29 -14s12 -20.333 12 -33v-515z" />
    <glyph glyph-name="ocircumflex" unicode="&#xf4;" horiz-adv-x="431" 
d="M360 841h-39l-76 44l-74 -44h-43l-85 72l97 84l52 1l99 -85zM279 917l-88 77h-50l-86 -77h38l72 43l81 -43h33zM358 91c0 -26 -9.83301 -47.667 -29.5 -65s-43.167 -26 -70.5 -26c-17.333 0 -29.5 0.666992 -36.5 2s-14.5 5.66602 -22.5 12.999l-77 69
c-28.667 19.333 -43 46 -43 80v545c0 26.667 9.83301 48.834 29.5 66.501s43.834 26.5 72.501 26.5c21.333 0 42 -5.33301 62 -16c3.33301 -1.33301 7.66602 -4.33301 12.999 -9l75 -87c5.33301 -6 9.5 -11.167 12.5 -15.5s6.16699 -11.5 9.5 -21.5s5 -21 5 -33v-529z
M280 164v545c0 25.333 -9.83301 46.5 -29.5 63.5s-42.834 25.5 -69.501 25.5c-26 0 -48.833 -8.5 -68.5 -25.5s-29.5 -38.167 -29.5 -63.5v-545c0 -25.333 9.83301 -46.5 29.5 -63.5s42.834 -25.5 69.501 -25.5c26 0 48.833 8.5 68.5 25.5s29.5 38.167 29.5 63.5zM222 179
c0 -12 -3.83301 -22.833 -11.5 -32.5s-17.167 -14.5 -28.5 -14.5s-21 4.66699 -29 14s-12 20.333 -12 33v515c0 12 3.83301 22.833 11.5 32.5s17.167 14.5 28.5 14.5s21 -4.66699 29 -14s12 -20.333 12 -33v-515z" />
    <glyph glyph-name="otilde" unicode="&#xf5;" horiz-adv-x="426" 
d="M411 906l-107 -70l-76 44l-74 -44h-46l-81 72l123 87h5l73 -49l63 33h4h53zM334 975h-41l-63 -34l-78 50l-112 -79h36l72 43h4l77 -47zM352 91c0 -26 -9.83301 -47.667 -29.5 -65s-43.167 -26 -70.5 -26c-17.333 0 -29.5 0.666992 -36.5 2s-14.5 5.66602 -22.5 12.999
l-77 69c-28.667 19.333 -43 46 -43 80v545c0 26.667 9.83301 48.834 29.5 66.501s43.834 26.5 72.501 26.5c21.333 0 42 -5.33301 62 -16c3.33301 -1.33301 7.66602 -4.33301 12.999 -9l75 -87c5.33301 -6 9.5 -11.167 12.5 -15.5s6.16699 -11.5 9.5 -21.5s5 -21 5 -33v-529
zM274 164v545c0 25.333 -9.83301 46.5 -29.5 63.5s-42.834 25.5 -69.501 25.5c-26 0 -48.833 -8.5 -68.5 -25.5s-29.5 -38.167 -29.5 -63.5v-545c0 -25.333 9.83301 -46.5 29.5 -63.5s42.834 -25.5 69.501 -25.5c26 0 48.833 8.5 68.5 25.5s29.5 38.167 29.5 63.5zM216 179
c0 -12 -3.83301 -22.833 -11.5 -32.5s-17.167 -14.5 -28.5 -14.5s-21 4.66699 -29 14s-12 20.333 -12 33v515c0 12 3.83301 22.833 11.5 32.5s17.167 14.5 28.5 14.5s21 -4.66699 29 -14s12 -20.333 12 -33v-515z" />
    <glyph glyph-name="odieresis" unicode="&#xf6;" horiz-adv-x="428" 
d="M332 901l-1 -60h-59l-64 60v-60h-60l-79 72v64h64l60 -62v62h64zM253 917v56h-56v-56h56zM129 917v56h-56v-56h56zM352 91c0 -26 -9.83301 -47.667 -29.5 -65s-43.167 -26 -70.5 -26c-17.333 0 -29.5 0.666992 -36.5 2s-14.5 5.66602 -22.5 12.999l-77 69
c-28.667 19.333 -43 46 -43 80v545c0 26.667 9.83301 48.834 29.5 66.501s43.834 26.5 72.501 26.5c21.333 0 42 -5.33301 62 -16c3.33301 -1.33301 7.66602 -4.33301 12.999 -9l75 -87c5.33301 -6 9.5 -11.167 12.5 -15.5s6.16699 -11.5 9.5 -21.5s5 -21 5 -33v-529z
M274 164v545c0 25.333 -9.83301 46.5 -29.5 63.5s-42.834 25.5 -69.501 25.5c-26 0 -48.833 -8.5 -68.5 -25.5s-29.5 -38.167 -29.5 -63.5v-545c0 -25.333 9.83301 -46.5 29.5 -63.5s42.834 -25.5 69.501 -25.5c26 0 48.833 8.5 68.5 25.5s29.5 38.167 29.5 63.5zM216 179
c0 -12 -3.83301 -22.833 -11.5 -32.5s-17.167 -14.5 -28.5 -14.5s-21 4.66699 -29 14s-12 20.333 -12 33v515c0 12 3.83301 22.833 11.5 32.5s17.167 14.5 28.5 14.5s21 -4.66699 29 -14s12 -20.333 12 -33v-515z" />
    <glyph glyph-name="divide" unicode="&#xf7;" horiz-adv-x="664" 
d="M388 415c0 -16 -5.83301 -30.167 -17.5 -42.5s-25.167 -18.5 -40.5 -18.5c-16.667 0 -31 6 -43 18s-18 26.667 -18 44c0 16 6 30 18 42s26.333 18 43 18c16 0 29.667 -6 41 -18s17 -26.333 17 -43zM618 239h-565v59h565v-59zM389 120
c0 -16 -6.16797 -30.166 -18.501 -42.499s-26.166 -18.5 -41.499 -18.5c-16 0 -30 6.33301 -42 19s-18 27 -18 43s6.16699 29.833 18.5 41.5s26.5 17.5 42.5 17.5s29.833 -5.83301 41.5 -17.5s17.5 -25.834 17.5 -42.501z" />
    <glyph glyph-name="oslash" unicode="&#xf8;" horiz-adv-x="516" 
d="M445 724l-62.002 -162.001v-471c0 -26 -9.83301 -47.667 -29.5 -65s-43.167 -26 -70.5 -26c-25.333 0 -43.666 2.66699 -54.999 8c-18.667 8.66699 -43.667 29.334 -75 62.001l-31 -70h-60l-47 70l94 213v424c0 26 10.333 48 31 66s44.334 27 71.001 27
c20 0 39 -5.33301 57 -16l46 -36l22 52h67zM396.998 795.999l-57.002 0.00292969l-38 -87v10c0 7.33301 -1.16699 14.166 -3.5 20.499s-5.16602 12.166 -8.49902 17.499c-4.66699 5.33301 -7.66699 9 -9 11c-18.667 18.667 -42 28 -70 28c-26 0 -48.833 -8.5 -68.5 -25.5
s-29.5 -38.167 -29.5 -63.5v-425l-92 -208h56l36 81l1 -7c2.66699 -22.667 13.334 -40.834 32.001 -54.501s40.667 -20.5 66 -20.5c26 0 48.167 8.5 66.5 25.5s27.5 38.167 27.5 63.5v428zM251.996 600.002l-81 -184v276c0 12 3.83301 22.833 11.5 32.5
s17.167 14.5 28.5 14.5s21 -4.66699 29 -14s12 -20.333 12 -33v-92zM252.996 179.002c0 -12.667 -4.16699 -24.167 -12.5 -34.5s-18.166 -15.5 -29.499 -15.5c-10.667 0 -19.834 5.16699 -27.501 15.5s-11.5 21.833 -11.5 34.5v100l81 188v-288z" />
    <glyph glyph-name="ugrave" unicode="&#xf9;" horiz-adv-x="427" 
d="M324 854l-16 -20l-185 81l-82 80l73 42l135 -102zM245 932l-130 100l-64 -37l180 -79zM350 90c0 -25.333 -9.83203 -46.666 -29.499 -63.999s-42.834 -26 -69.501 -26c-17.333 0 -29.5 0.666992 -36.5 2s-14.5 5.66602 -22.5 12.999l-77 68c-28.667 22 -43 49 -43 81v638
h64l77 -74v74h64l73 -70v-642zM273.001 164v634h-56v-619c0 -13.333 -3.83301 -24.833 -11.5 -34.5s-17.834 -14.5 -30.501 -14.5c-12 0 -22.167 4.83301 -30.5 14.5s-12.5 21.167 -12.5 34.5v619h-56v-634c0 -25.333 9.83301 -46.5 29.5 -63.5s42.834 -25.5 69.501 -25.5
c26 0 48.833 8.5 68.5 25.5s29.5 38.167 29.5 63.5z" />
    <glyph glyph-name="uacute" unicode="&#xfa;" horiz-adv-x="431" 
d="M381 921l-188 -84l-114 110l157 85l70 -31zM295 1001l-58 26l-148 -80l51 -20zM356 90c0 -25.333 -9.83203 -46.666 -29.499 -63.999s-42.834 -26 -69.501 -26c-17.333 0 -29.5 0.666992 -36.5 2s-14.5 5.66602 -22.5 12.999l-77 68c-28.667 22 -43 49 -43 81v638h64
l77 -74v74h64l73 -70v-642zM279.001 164v634h-56v-619c0 -13.333 -3.83301 -24.833 -11.5 -34.5s-17.834 -14.5 -30.501 -14.5c-12 0 -22.167 4.83301 -30.5 14.5s-12.5 21.167 -12.5 34.5v619h-56v-634c0 -25.333 9.83301 -46.5 29.5 -63.5s42.834 -25.5 69.501 -25.5
c26 0 48.833 8.5 68.5 25.5s29.5 38.167 29.5 63.5z" />
    <glyph glyph-name="ucircumflex" unicode="&#xfb;" horiz-adv-x="447" 
d="M374 845h-39l-76 44l-74 -44h-43l-85 72l97 84l52 1l99 -85zM293 921l-88 77h-50l-86 -77h38l72 43l81 -43h33zM359 90c0 -25.333 -9.83203 -46.666 -29.499 -63.999s-42.834 -26 -69.501 -26c-17.333 0 -29.5 0.666992 -36.5 2s-14.5 5.66602 -22.5 12.999l-77 68
c-28.667 22 -43 49 -43 81v638h64l77 -74v74h64l73 -70v-642zM282.001 164v634h-56v-619c0 -13.333 -3.83301 -24.833 -11.5 -34.5s-17.834 -14.5 -30.501 -14.5c-12 0 -22.167 4.83301 -30.5 14.5s-12.5 21.167 -12.5 34.5v619h-56v-634
c0 -25.333 9.83301 -46.5 29.5 -63.5s42.834 -25.5 69.501 -25.5c26 0 48.833 8.5 68.5 25.5s29.5 38.167 29.5 63.5z" />
    <glyph glyph-name="udieresis" unicode="&#xfc;" horiz-adv-x="437" 
d="M334 913l-1 -60h-59l-64 60v-60h-60l-79 72v64h64l60 -62v62h64zM255 929v56h-56v-56h56zM131 929v56h-56v-56h56zM360 90c0 -25.333 -9.83203 -46.666 -29.499 -63.999s-42.834 -26 -69.501 -26c-17.333 0 -29.5 0.666992 -36.5 2s-14.5 5.66602 -22.5 12.999l-77 68
c-28.667 22 -43 49 -43 81v638h64l77 -74v74h64l73 -70v-642zM283.001 164v634h-56v-619c0 -13.333 -3.83301 -24.833 -11.5 -34.5s-17.834 -14.5 -30.501 -14.5c-12 0 -22.167 4.83301 -30.5 14.5s-12.5 21.167 -12.5 34.5v619h-56v-634
c0 -25.333 9.83301 -46.5 29.5 -63.5s42.834 -25.5 69.501 -25.5c26 0 48.833 8.5 68.5 25.5s29.5 38.167 29.5 63.5z" />
    <glyph glyph-name="ydieresis" unicode="&#xff;" horiz-adv-x="397" 
d="M341 726l-70 -360v-366h-60l-79 72v369l-70 361h64l66 -66l10 66h64zM262 798h-56l-41 -260l-43 260h-56l70 -357v-365h56v365zM314 905l-1 -60h-59l-64 60v-60h-60l-79 72v64h64l60 -62v62h64zM235 921v56h-56v-56h56zM111 921v56h-56v-56h56z" />
    <glyph glyph-name="OE" unicode="&#x152;" horiz-adv-x="582" 
d="M515 317l-97.001 0.999023v-182h22l74 -76v-60h-155h-40h-61c-17.333 0 -29.5 0.666992 -36.5 2s-14.5 5.66602 -22.5 12.999l-79 72c-26.667 20.667 -40 46.334 -40 77.001v545c0 26.667 9.83301 48.834 29.5 66.501s43.834 26.5 72.501 26.5
c30.667 0 54.667 -8.33301 72 -25c12.667 -12 21.667 -27.667 27 -47v72h159l74 -78v-58h-96v-212h20l77 -74v-63zM435.999 75.999l-0.00195312 56h-96v262h96v56h-96v292h96v56h-151v-89h-4c-4 20 -8.66699 34.667 -14 44c-17.333 30 -45.666 45 -84.999 45
c-26 0 -48.833 -8.5 -68.5 -25.5s-29.5 -38.167 -29.5 -63.5v-545c0 -25.333 9.83301 -46.5 29.5 -63.5s42.834 -25.5 69.501 -25.5c35.333 0 62 14.667 80 44c6 9.33301 11.667 24.333 17 45h4v-88h152zM221.997 178.999c0 -12 -3.83301 -22.833 -11.5 -32.5
s-17.167 -14.5 -28.5 -14.5s-21 4.66699 -29 14s-12 20.333 -12 33v515c0 12 3.83301 22.833 11.5 32.5s17.167 14.5 28.5 14.5s21 -4.66699 29 -14s12 -20.333 12 -33v-515z" />
    <glyph glyph-name="oe" unicode="&#x153;" horiz-adv-x="582" 
d="M515 317l-97.001 0.999023v-182h22l74 -76v-60h-155h-40h-61c-17.333 0 -29.5 0.666992 -36.5 2s-14.5 5.66602 -22.5 12.999l-79 72c-26.667 20.667 -40 46.334 -40 77.001v545c0 26.667 9.83301 48.834 29.5 66.501s43.834 26.5 72.501 26.5
c30.667 0 54.667 -8.33301 72 -25c12.667 -12 21.667 -27.667 27 -47v72h159l74 -78v-58h-96v-212h20l77 -74v-63zM435.999 75.999l-0.00195312 56h-96v262h96v56h-96v292h96v56h-151v-89h-4c-4 20 -8.66699 34.667 -14 44c-17.333 30 -45.666 45 -84.999 45
c-26 0 -48.833 -8.5 -68.5 -25.5s-29.5 -38.167 -29.5 -63.5v-545c0 -25.333 9.83301 -46.5 29.5 -63.5s42.834 -25.5 69.501 -25.5c35.333 0 62 14.667 80 44c6 9.33301 11.667 24.333 17 45h4v-88h152zM221.997 178.999c0 -12 -3.83301 -22.833 -11.5 -32.5
s-17.167 -14.5 -28.5 -14.5s-21 4.66699 -29 14s-12 20.333 -12 33v515c0 12 3.83301 22.833 11.5 32.5s17.167 14.5 28.5 14.5s21 -4.66699 29 -14s12 -20.333 12 -33v-515z" />
    <glyph glyph-name="Ydieresis" unicode="&#x178;" horiz-adv-x="397" 
d="M341 726l-70 -360v-366h-60l-79 72v369l-70 361h64l66 -66l10 66h64zM262 798h-56l-41 -260l-43 260h-56l70 -357v-365h56v365zM314 905l-1 -60h-59l-64 60v-60h-60l-79 72v64h64l60 -62v62h64zM235 921v56h-56v-56h56zM111 921v56h-56v-56h56z" />
    <glyph glyph-name="florin" unicode="&#x192;" horiz-adv-x="447" 
d="M425 835c-10 -24.667 -28.666 -36.999 -55.999 -36.999c-6 0 -11.667 2.33301 -17 7c-8.66699 6.66699 -14.667 11 -18 13c-4 2 -7.33301 3 -10 3c-15.333 0 -27 -39.333 -35 -118c-5.33301 -50.667 -10.333 -86.334 -15 -107.001l-6 -20h104l-5 -45h-111l-64 -318
c-16.667 -82 -36 -148.333 -58 -199c-36.667 -84.667 -78.334 -127 -125.001 -127c-8.66699 0 -17 0.833008 -25 2.5s-15.167 6.66699 -21.5 15s-9.5 16.833 -9.5 25.5c0 2 0.666992 5 2 9c10 26 27 39 51 39c8.66699 0 15.5 -4.5 20.5 -13.5s10.167 -14.167 15.5 -15.5
c14.667 -4.66699 27.667 8 39 38c3.33301 9.33301 16.333 68.333 39 177l75 369h-116l2 44h129l6 28c15.333 76 34.666 137.667 57.999 185c30.667 62.667 64.667 94 102 94c12.667 0 24.334 -3.83301 35.001 -11.5s16 -17.167 16 -28.5c0 -2 -0.666992 -5 -2 -9z" />
    <glyph glyph-name="summation" unicode="&#x3a3;" horiz-adv-x="808" 
d="M767 153c-6 -18 -11.998 -38.167 -17.998 -60.5s-11 -42.166 -15 -59.499s-7 -34.5 -9 -51.5s-3 -35.833 -3 -56.5l-74 15h-603l373 408l-368 458l68 -6h572l2 -169h-23c0 20.667 -2.83301 38 -8.5 52s-15.334 27.167 -29.001 39.5s-28.334 20.5 -44.001 24.5
s-36.167 6 -61.5 6h-307l295 -359l-315 -355h423c26 0 49.333 7.66699 70 23c16 13.333 28.333 27.166 37 41.499s13 30.833 13 49.5h25z" />
    <glyph glyph-name="Omega" unicode="&#x3a9;" horiz-adv-x="850" 
d="M800 0l-313 0.00195312l16 151c50 23.333 87.167 56.5 111.5 99.5s36.5 93.833 36.5 152.5c0 72 -13.667 126 -41 162c-36 46.667 -96.667 70 -182 70c-80 0 -139 -22.667 -177 -68c-32.667 -38.667 -49 -93.334 -49 -164.001c0 -58 12 -108.667 36 -152
s61.333 -76.666 112 -99.999l15 -151h-313v160h20c0 -9.33301 0.333008 -15.333 1 -18c1.33301 -5.33301 4.33301 -11.333 9 -18c12 -18 30.667 -27 56 -27h170v33c-68 10.667 -122.833 41.5 -164.5 92.5s-62.5 111.833 -62.5 182.5c0 82 32 146.167 96 192.5
s147.333 69.5 250 69.5c106.667 0 190.667 -23 252 -69s92 -110.333 92 -193c0 -69.333 -21.167 -129.833 -63.5 -181.5s-97.5 -82.834 -165.5 -93.501v-33h173c12 0 22.333 2 31 6s16.5 11.167 23.5 21.5s10.5 22.166 10.5 35.499h20v-160z" />
    <glyph glyph-name="pi" unicode="&#x3c0;" horiz-adv-x="692" 
d="M640 164l-3.00391 -24c-5.33301 -43.333 -21.166 -79.833 -47.499 -109.5s-59.5 -44.5 -99.5 -44.5c-35.333 0 -61.666 18 -78.999 54c-14 29.333 -21 68 -21 116c0 16.667 1 33 3 49l28 245h-134l-46 -362c-2.66699 -26.667 -10.334 -50.334 -23.001 -71.001
c-14.667 -24 -32 -36 -52 -36c-6.66699 0 -11.667 0.666992 -15 2c-25.333 3.33301 -41.666 15.666 -48.999 36.999c-1.33301 8 -2 13.333 -2 16c0 14.667 5.66699 28.667 17 42c34.667 40.667 52.667 62.334 54 65.001l16 33c2 5.33301 3 13 3 23l28 246h-38h-14
c-12 0 -19.667 -0.333008 -23 -1c-4 -0.666992 -11 -3 -21 -7s-21.333 -13.667 -34 -29c-9.33301 -11.333 -15.666 -21.333 -18.999 -30l-19 8l8 16c18 39.333 29.333 63 34 71c14 23.333 32.333 40.333 55 51c20 12.667 44.333 19 73 19h413v-93h-150l-16 -273
c0 -25.333 6.83301 -47.666 20.5 -66.999s31.834 -29 54.501 -29c17.333 0 32.333 6 45 18s21 27.667 25 47l5 18h23z" />
    <glyph glyph-name="endash" unicode="&#x2013;" horiz-adv-x="536" 
d="M468 359h-400v71h400v-71z" />
    <glyph glyph-name="emdash" unicode="&#x2014;" horiz-adv-x="933" 
d="M864 359h-799v71h799v-71z" />
    <glyph glyph-name="quoteleft" unicode="&#x2018;" horiz-adv-x="273" 
d="M213 725l-8 -4.00098c-8.66699 -4.66699 -15.5 -10.667 -20.5 -18s-6.5 -15.666 -4.5 -24.999c0 -6 2.5 -11.833 7.5 -17.5s10.833 -8.5 17.5 -8.5v-60h-60l-78 72v62c0 5.33301 -0.166992 10.833 -0.5 16.5s-0.5 11.5 -0.5 17.5c0 10.667 2 19.667 6 27s7 12.333 9 15
c6 8 13.333 14.667 22 20l11 7zM134 799.999l-20.001 23.999l-9 -6c-7.33301 -4.66699 -12.666 -8.83398 -15.999 -12.501s-7.33301 -9.5 -12 -17.5s-7 -18.333 -7 -31c0.666992 -13.333 1 -23.666 1 -30.999v-58h56l-1 56c-7.33301 0 -13.333 3 -18 9s-7 12.667 -7 20
c0 20.667 9 35.334 27 44.001z" />
    <glyph glyph-name="quoteright" unicode="&#x2019;" horiz-adv-x="272" 
d="M207 665v-25c0 -16 -2.33301 -27.667 -7 -35c-9.33301 -16 -19 -27 -29 -33l-9 -6l-106 101l11 5c9.33301 4 16 9.5 20 16.5s6 15.167 6 24.5c0 6.66699 -2.16699 12.5 -6.5 17.5s-9.83301 7.5 -16.5 7.5l-2 64h64l75 -77v-60zM128 740v58.002h-56v-56
c6.66699 0 12.667 -3 18 -9s8 -12.667 8 -20c0 -20.667 -9 -35.334 -27 -44.001l-6 -3l13 -13l9 -9l7 4c8.66699 5.33301 15 11 19 17l11 17c3.33301 5.33301 5 14.333 5 27c-0.666992 13.333 -1 23.666 -1 30.999z" />
    <glyph glyph-name="quotesinglbase" unicode="&#x201a;" horiz-adv-x="272" 
d="M207 -65v-25c0 -16 -2.33301 -27.667 -7 -35c-9.33301 -16 -19 -27 -29 -33l-9 -6l-106 101l11 5c9.33301 4 16 9.5 20 16.5s6 15.167 6 24.5c0 6.66699 -2.16699 12.5 -6.5 17.5s-9.83301 7.5 -16.5 7.5l-2 64h64l75 -77v-60zM128 10v58.002h-56v-56
c6.66699 0 12.667 -3 18 -9s8 -12.667 8 -20c0 -20.667 -9 -35.334 -27 -44.001l-6 -3l13 -13l9 -9l7 4c8.66699 5.33301 15 11 19 17l11 17c3.33301 5.33301 5 14.333 5 27c-0.666992 13.333 -1 23.666 -1 30.999z" />
    <glyph glyph-name="quotedblleft" unicode="&#x201c;" horiz-adv-x="418" 
d="M357 725l-7.99805 -4.00098c-17.333 -8.66699 -26 -22.667 -26 -42c0 -7.33301 2.33301 -13.666 7 -18.999s11 -8 19 -8v-60h-60l-78 72v62c0 5.33301 -0.166992 10.833 -0.5 16.5s-0.5 11.5 -0.5 17.5c0 10.667 2.16699 20 6.5 28s8.66602 14.667 12.999 20
s10.166 10 17.499 14l12 7zM204.002 724.999l-8.00098 -3.99902c-17.333 -8.66699 -26 -22.667 -26 -42c0 -7.33301 2.33301 -13.666 7 -18.999s11 -8 19 -8v-60h-60l-78 72v62c0 5.33301 -0.166992 10.833 -0.5 16.5s-0.5 11.5 -0.5 17.5c0 10.667 2.33301 20.167 7 28.5
s8.83398 14.666 12.501 18.999s9.5 9.16602 17.5 14.499l12 8zM278.001 800l-20.001 23.999l-9 -6c-7.33301 -4.66699 -12.666 -8.83398 -15.999 -12.501s-7.33301 -9.5 -12 -17.5s-7 -18.333 -7 -31c0.666992 -13.333 1 -23.666 1 -30.999v-58h56l-1 56
c-7.33301 0 -13.333 3 -18 9s-7 12.667 -7 20c0 20.667 9 35.334 27 44.001zM125 799.999l-20.001 23.999l-9 -6c-7.33301 -4.66699 -12.666 -8.83398 -15.999 -12.501s-7.33301 -9.5 -12 -17.5s-7 -18.333 -7 -31c0.666992 -13.333 1 -23.666 1 -30.999v-58h56l-1 56
c-7.33301 0 -13.333 3 -18 9s-7 12.667 -7 20c0 20.667 9 35.334 27 44.001z" />
    <glyph glyph-name="quotedblright" unicode="&#x201d;" horiz-adv-x="411" 
d="M348 665l0.000976562 -25c0 -16.667 -2.5 -29.167 -7.5 -37.5s-8.5 -13.5 -10.5 -15.5c-3.33301 -4 -9 -8.66699 -17 -14l-10 -7l-104 101l11 6c16.667 8.66699 25 22 25 40c0 6 -2.33301 11.667 -7 17s-10.334 8 -17.001 8l-2 64h64l75 -77v-60zM197.001 665
l0.000976562 -25c0 -16.667 -2.5 -29.167 -7.5 -37.5s-8.5 -13.5 -10.5 -15.5c-3.33301 -4 -9 -8.66699 -17 -14l-10 -7l-105 101l12 6c16.667 8 25 21.333 25 40c0 6 -2.33301 11.667 -7 17s-10.334 8 -17.001 8l-2 64h64l75 -77v-60zM269.002 740l0.000976562 58.001h-56
v-56c6.66699 0 12.667 -3 18 -9s8 -12.667 8 -20c0 -20.667 -9 -35.334 -27 -44.001l-6 -3c2 -3.33301 7.66699 -8.66602 17 -15.999c1.33301 -1.33301 3.66602 -3.33301 6.99902 -6l5 4c8.66699 7.33301 14.334 12.333 17.001 15c3.33301 4 7.16602 9.5 11.499 16.5
s6.5 16.833 6.5 29.5c-0.666992 13.333 -1 23.666 -1 30.999zM118.003 740.001l0.000976562 58h-56v-56c6.66699 0 12.667 -3 18 -9s8 -12.667 8 -20c0 -20.667 -9 -35.334 -27 -44.001l-6 -3c2 -3.33301 7.66699 -8.66602 17 -15.999
c1.33301 -1.33301 3.66602 -3.33301 6.99902 -6l5 4c8.66699 6.66699 14.5 11.834 17.5 15.501s6.66699 9 11 16s6.5 16.833 6.5 29.5c-0.666992 13.333 -1 23.666 -1 30.999z" />
    <glyph glyph-name="quotedblbase" unicode="&#x201e;" horiz-adv-x="411" 
d="M348 -65l0.000976562 -25c0 -16.667 -2.5 -29.167 -7.5 -37.5s-8.5 -13.5 -10.5 -15.5c-3.33301 -4 -9 -8.66699 -17 -14l-10 -7l-104 101l11 6c16.667 8.66699 25 22 25 40c0 6 -2.33301 11.667 -7 17s-10.334 8 -17.001 8l-2 64h64l75 -77v-60zM197.001 -65
l0.000976562 -25c0 -16.667 -2.5 -29.167 -7.5 -37.5s-8.5 -13.5 -10.5 -15.5c-3.33301 -4 -9 -8.66699 -17 -14l-10 -7l-105 101l12 6c16.667 8 25 21.333 25 40c0 6 -2.33301 11.667 -7 17s-10.334 8 -17.001 8l-2 64h64l75 -77v-60zM269.002 10l0.000976562 58.001h-56
v-56c6.66699 0 12.667 -3 18 -9s8 -12.667 8 -20c0 -20.667 -9 -35.334 -27 -44.001l-6 -3c2 -3.33301 7.66699 -8.66602 17 -15.999c1.33301 -1.33301 3.66602 -3.33301 6.99902 -6l5 4c8.66699 7.33301 14.334 12.333 17.001 15c3.33301 4 7.16602 9.5 11.499 16.5
s6.5 16.833 6.5 29.5c-0.666992 13.333 -1 23.666 -1 30.999zM118.003 10.001l0.000976562 58h-56v-56c6.66699 0 12.667 -3 18 -9s8 -12.667 8 -20c0 -20.667 -9 -35.334 -27 -44.001l-6 -3c2 -3.33301 7.66699 -8.66602 17 -15.999
c1.33301 -1.33301 3.66602 -3.33301 6.99902 -6l5 4c8.66699 6.66699 14.5 11.834 17.5 15.501s6.66699 9 11 16s6.5 16.833 6.5 29.5c-0.666992 13.333 -1 23.666 -1 30.999z" />
    <glyph glyph-name="dagger" unicode="&#x2020;" horiz-adv-x="539" 
d="M496 542h-172v-519h-101v517h-170v74h170v187h101v-189h172v-70z" />
    <glyph glyph-name="bullet" unicode="&#x2022;" horiz-adv-x="360" 
d="M311 354c0 -35.333 -11.5 -66.167 -34.5 -92.5s-52.167 -39.5 -87.5 -39.5c-36.667 0 -67.334 10.333 -92.001 31c-27.333 22.667 -41 53 -41 91s11.5 69.167 34.5 93.5s54.833 36.5 95.5 36.5s72.334 -12.333 95.001 -37c20 -22 30 -49.667 30 -83z" />
    <glyph glyph-name="ellipsis" unicode="&#x2026;" horiz-adv-x="564" 
d="M200 0h-60l-79 72v64h64l75 -76v-60zM121 76v56h-56v-56h56zM480 0h-60l-79 72v64h64l75 -76v-60zM401 76v56h-56v-56h56zM340 0h-60l-79 72v64h64l75 -76v-60zM261 76v56h-56v-56h56z" />
    <glyph glyph-name="trademark" unicode="&#x2122;" horiz-adv-x="764" 
d="M715 420h-39v337l-126 -337h-33l-122 339v-339h-38v381h59l120 -335l124 335h55v-381zM329 767h-119v-350h-37v350h-118v34h274v-34z" />
    <glyph glyph-name="partialdiff" unicode="&#x2202;" horiz-adv-x="576" 
d="M529 425c0 -106.667 -22.333 -203.331 -67 -289.998c-50 -97.333 -114 -146 -192 -146c-8 0 -14 0.333008 -18 1c-64 6.66699 -113.167 28.5 -147.5 65.5s-51.5 84.833 -51.5 143.5c0 64 20.333 119.5 61 166.5s91.667 70.5 153 70.5
c26.667 0 50.334 -4.33301 71.001 -13c16.667 -6.66699 38 -19.667 64 -39l33 -22l10 53c2.66699 18 4 39 4 63c0 73.333 -15 135.666 -45 186.999c-34 58.667 -81.333 88 -142 88c-16.667 0 -33.667 -3.16699 -51 -9.5l-51 -18.5l-22 -6l-40 52l46 13
c19.333 5.33301 36.666 9.16602 51.999 11.499s31.333 3.5 48 3.5c86.667 0 157 -39.333 211 -118c49.333 -72 74 -157.333 74 -256zM427 322.003l-30.999 28c-18 18.667 -41 31.334 -69 38.001c-9.33301 2 -18 3 -26 3c-35.333 0 -66.666 -15.333 -93.999 -46
c-24.667 -27.333 -42.334 -62 -53.001 -104c-6.66699 -22 -10 -45.667 -10 -71c0 -36 7.66699 -67.833 23 -95.5s38.333 -46.167 69 -55.5c1.33301 -0.666992 5.16602 -1.5 11.499 -2.5s11.5 -1.5 15.5 -1.5c38.667 0 71.667 25 99 75c22 39.333 38.333 88.666 49 147.999z
" />
    <glyph glyph-name="Delta" unicode="&#x2206;" horiz-adv-x="794" 
d="M751 0h-702l375 785zM612 50l-233 549l-257 -549h490z" />
    <glyph glyph-name="product" unicode="&#x220f;" horiz-adv-x="928" 
d="M880 -64l-330 0.000976562v21l28 1c18 0 31 1.5 39 4.5s15.167 7.83301 21.5 14.5s10.333 14.667 12 24s2.5 16.333 2.5 21v24v694h-385v-690c0 -18.667 1.66699 -33.667 5 -45s11.333 -21.666 24 -30.999c7.33301 -6.66699 15.5 -10.834 24.5 -12.501
s20.5 -2.5 34.5 -2.5h22v-23h-329v25h24c17.333 0 29.333 0.5 36 1.5s15.167 5.33301 25.5 13s16.5 16.834 18.5 27.501s3 27 3 49v625c0 29.333 -11.667 54.666 -35 75.999c-8.66699 8 -16.5 13.833 -23.5 17.5s-15.833 5.5 -26.5 5.5l-18 2v22h827v-24l-24 -1
c-16 0 -32.333 -6.66699 -49 -20c-12.667 -11.333 -21.167 -24.333 -25.5 -39s-6.5 -32.334 -6.5 -53.001v-619v-29c2 -15.333 8.66699 -28.666 20 -39.999c8 -6.66699 16.167 -11.334 24.5 -14.001s19.833 -4.66699 34.5 -6h26v-19z" />
    <glyph glyph-name="radical" unicode="&#x221a;" horiz-adv-x="595" 
d="M552 852l-147 -901l-239 474l-93 -46l-15 33l141 66l193 -381l127 759z" />
    <glyph glyph-name="infinity" unicode="&#x221e;" horiz-adv-x="882" 
d="M836 277c0 -51.333 -16.168 -92.833 -48.501 -124.5s-70.166 -47.5 -113.499 -47.5c-28 0 -58.167 6.66699 -90.5 20s-61.5 32.333 -87.5 57l-52 47l-51 -47c-26 -24.667 -54.667 -43.667 -86 -57s-61.666 -20 -90.999 -20c-42.667 0 -79.667 15.333 -111 46
c-33.333 32.667 -50 74.667 -50 126c0 42.667 16.333 79 49 109s71 45 115 45c55.333 0 109.666 -24.667 162.999 -74l62 -56l65 56c53.333 49.333 107 74 161 74c44.667 0 83.5 -14.833 116.5 -44.5s49.5 -66.167 49.5 -109.5zM777.999 272c0 29.333 -10.667 53.333 -32 72
s-48 28 -80 28c-21.333 0 -41 -4.33301 -59 -13c-12.667 -6 -29.667 -17.667 -51 -35l-76 -56l70 -65c16.667 -16 34.167 -27.333 52.5 -34s39.5 -10 63.5 -10c32 0 58.667 10 80 30s32 44.333 32 73v10zM410.999 268l-77.001 55.999c-20 16.667 -37.333 28.334 -52 35.001
c-18 8.66699 -37.667 13 -59 13c-30.667 0 -56.167 -9.33301 -76.5 -28s-32.166 -42.667 -35.499 -72c0 -32 10.5 -58.833 31.5 -80.5s48.5 -32.5 82.5 -32.5c24.667 0 45.5 3.16699 62.5 9.5s34.5 17.833 52.5 34.5z" />
    <glyph glyph-name="integral" unicode="&#x222b;" horiz-adv-x="360" 
d="M313 827c-1.33301 -12 -6.33594 -21.668 -15.0029 -29.001s-18.667 -11 -30 -11c-6.66699 0 -14.167 3 -22.5 9s-14.833 10 -19.5 12c-8.66699 4 -14.667 2 -18 -6s-5 -21 -5 -39c0 -22 1.33301 -47.333 4 -76c7.33301 -79.333 11 -125.666 11 -138.999v-330
c0 -82.667 -5.33301 -149 -16 -199c-18 -84.667 -49.667 -127 -95 -127c-6.66699 0 -14.667 1.33301 -24 4s-18.166 8.66699 -26.499 18s-12.166 19.333 -11.499 30c4 26.667 17.333 40 40 40c10 0 18.833 -4.66699 26.5 -14s13.834 -14.666 18.501 -15.999
c10.667 -3.33301 18.167 3.33398 22.5 20.001s6.5 40 6.5 70c0 20.667 -0.333008 41.667 -1 63l-2 63v458c0 91.333 9.33301 156.666 28 195.999c16 34 39.333 51 70 51c15.333 0 29.5 -4.83301 42.5 -14.5s18.5 -20.834 16.5 -33.501z" />
    <glyph glyph-name="approxequal" unicode="&#x2248;" horiz-adv-x="726" 
d="M680 409l-20.999 -27.001c-21.333 -23.333 -43.333 -40.5 -66 -51.5s-49 -16.5 -79 -16.5c-20.667 0 -40.667 3.16699 -60 9.5l-58 19.5l-93 24l-39.5 11.5c-13 3.66699 -25.833 5.5 -38.5 5.5c-10 0 -17.667 -0.666992 -23 -2c-30 -6 -58 -22 -84 -48l-19 -21l-50 33
l17 16c19.333 22 39.333 38.333 60 49s45.334 18.334 74.001 23.001c13.333 2 25.666 3 36.999 3c15.333 0 29.666 -1.33301 42.999 -4c4.66699 -0.666992 20 -4.66699 46 -12l83 -26c22 -8 37.333 -13.333 46 -16c16 -5.33301 30.667 -8 44 -8c6 0 10.667 0.333008 14 1
c40 0 73.667 14.667 101 44l20 21zM680.001 222.999l-20.998 -25.999c-20.667 -22.667 -42.334 -39.334 -65.001 -50.001s-49.334 -16 -80.001 -16c-19.333 0 -39 2.66699 -59 8c-24 8 -43.667 14 -59 18l-93 27l-38.5 10.5c-13 3.66699 -24.833 5.5 -35.5 5.5
c-8 0 -18.833 -1.33301 -32.5 -4s-26.834 -7.66699 -39.501 -15s-25.667 -18.333 -39 -33l-19 -18l-50 30l17 19c36.667 38.667 81.334 62.667 134.001 72c6 1.33301 12 2 18 2h14c14.667 0 29.334 -1.5 44.001 -4.5s31.334 -7.5 50.001 -13.5l83 -25
c24 -8 42.5 -13.833 55.5 -17.5s29.167 -5.5 48.5 -5.5c23.333 2.66699 42.666 7 57.999 13s29.666 16.333 42.999 31l20 21z" />
    <glyph glyph-name="notequal" unicode="&#x2260;" horiz-adv-x="635" 
d="M586 138h-281l-56 -150l-63 11l50 141h-181v60h201l51 149h-258v57h278l55 160l68 -13l-51 -147h187v-57h-208l-52 -152h260v-59z" />
    <glyph glyph-name="lessequal" unicode="&#x2264;" horiz-adv-x="562" 
d="M521 115l-474 221v64l471 221v-59l-415 -194l418 -193v-60zM521 0h-471v56h471v-56z" />
    <glyph glyph-name="greaterequal" unicode="&#x2265;" horiz-adv-x="562" 
d="M517 336l-472 -221v60l416 193l-413 194v59l469 -221v-64zM516 0h-469v56h469v-56z" />
    <glyph glyph-name="lozenge" unicode="&#x25ca;" horiz-adv-x="559" 
d="M520 402l-197 -402h-65l-202 408l202 392h65zM461 402l-171 339l-173 -336l176 -357z" />
    <glyph glyph-name="nonmarkingreturn" horiz-adv-x="264" 
 />
  </font>
</defs>
</svg>
