<?xml version="1.0" encoding="UTF-8" standalone="no"?>
<svg width="40px" height="40px" viewBox="0 0 40 40" version="1.1" xmlns="http://www.w3.org/2000/svg" xmlns:xlink="http://www.w3.org/1999/xlink">
    <!-- Generator: Sketch 49.1 (51147) - http://www.bohemiancoding.com/sketch -->
    <title>Icons/32/Lightbulb_32</title>
    <desc>Created with Sketch.</desc>
    <defs>
        <path d="M23.1504,33.9902 L16.8484,33.9902 L15.9964,29.9902 L23.9964,29.9902 L23.1504,33.9902 Z M20.1764,27.9902 L19.8164,27.9902 L17.9724,19.9902 L22.0224,19.9902 L20.1764,27.9902 Z M10.0004,16.0002 C10.0004,7.7342 15.4384,6.0002 19.9984,6.0002 C24.5584,6.0002 29.9964,7.7342 29.9964,16.0002 C29.9964,22.4742 25.7384,26.9322 24.6224,27.9902 L22.2284,27.9902 L24.9444,16.2142 L22.9964,15.7662 L22.4824,17.9902 L17.5124,17.9902 L16.9984,15.7662 L15.0484,16.2142 L17.7644,27.9902 L15.3744,27.9902 C14.2584,26.9322 10.0004,22.4742 10.0004,16.0002 Z M31.9964,16.0002 C31.9964,8.3722 27.6224,4.0002 19.9984,4.0002 C12.3724,4.0002 8.0004,8.3722 8.0004,16.0002 C8.0004,23.4642 12.8404,28.3802 14.0744,29.5142 L15.1524,35.9902 L18.9984,35.9902 L20.9984,35.9902 L24.8464,35.9902 L25.9244,29.5142 C27.1584,28.3802 31.9964,23.4642 31.9964,16.0002 Z" id="path-1"></path>
    </defs>
    <g id="Icons/32/Lightbulb_32" stroke="none" stroke-width="1" fill="none" fill-rule="evenodd">
        <mask id="mask-2" fill="white">
            <use xlink:href="#path-1"></use>
        </mask>
        <use id="Fill-1" fill="#00B956" xlink:href="#path-1"></use>
        <g id="Colors/Basic/Fresh-Asphalt" mask="url(#mask-2)">
            <g transform="translate(-2.000000, -2.000000)"></g>
        </g>
    </g>
</svg>