<?xml version="1.0" encoding="UTF-8" standalone="no"?>
<svg width="40px" height="40px" viewBox="0 0 40 40" version="1.1" xmlns="http://www.w3.org/2000/svg" xmlns:xlink="http://www.w3.org/1999/xlink">
    <!-- Generator: Sketch 49.1 (51147) - http://www.bohemiancoding.com/sketch -->
    <title>Icons/32/Car_32</title>
    <desc>Created with Sketch.</desc>
    <defs>
        <path d="M36,24.0372 L33.9,24.0372 C33.442,21.7592 31.42,20.0412 29,20.0412 C26.58,20.0412 24.558,21.7592 24.1,24.0372 L15.888,24.0372 C15.43,21.7592 13.408,20.0412 10.988,20.0412 C8.568,20.0412 6.546,21.7592 6.088,24.0372 L4,24.0372 L4,21.9332 C4,20.5572 4.26,19.2312 4.728,17.9972 L29.624,17.9972 C30.278,18.0252 31.234,18.0712 31.656,18.1072 C34.092,18.3232 36,20.4872 36,23.0352 L36,24.0372 Z M29,27.9992 C27.346,27.9992 26,26.6612 26,25.0192 C26,23.3772 27.346,22.0412 29,22.0412 C30.654,22.0412 32,23.3772 32,25.0192 C32,26.6612 30.654,27.9992 29,27.9992 Z M10.988,27.9992 C9.334,27.9992 7.988,26.6612 7.988,25.0192 C7.988,23.3772 9.334,22.0412 10.988,22.0412 C12.642,22.0412 13.988,23.3772 13.988,25.0192 C13.988,26.6612 12.642,27.9992 10.988,27.9992 Z M7.916,13.5592 C9.488,12.2872 11.796,11.2732 13.988,10.6572 L13.988,15.9972 L5.738,15.9972 C6.33,15.0832 7.054,14.2552 7.916,13.5592 Z M18,9.9992 C21.454,9.9992 23.956,10.9252 25.648,12.8292 C26.642,13.9492 27.252,15.1392 27.608,15.9972 L15.988,15.9972 L15.988,10.2012 C16.714,10.0792 17.402,9.9992 17.988,9.9992 L18,9.9992 Z M38,23.0352 C38,19.4592 35.292,16.4192 31.832,16.1152 C31.51,16.0852 30.884,16.0532 30.306,16.0272 L30.306,15.9972 L29.75,15.9972 C29.412,15.0072 28.644,13.1892 27.144,11.5012 C25.046,9.1452 22.056,7.9992 18,7.9992 L17.988,7.9992 C14.918,7.9992 9.712,9.5312 6.658,12.0032 C3.698,14.3992 2,18.0192 2,21.9332 L2,26.0372 L6.096,26.0372 C6.568,28.2972 8.58,29.9992 10.988,29.9992 C13.396,29.9992 15.408,28.2972 15.88,26.0372 L24.108,26.0372 C24.58,28.2972 26.592,29.9992 29,29.9992 C31.408,29.9992 33.42,28.2972 33.892,26.0372 L38,26.0372 L38,23.0352 Z" id="path-1"></path>
    </defs>
    <g id="Icons/32/Car_32" stroke="none" stroke-width="1" fill="none" fill-rule="evenodd">
        <mask id="mask-2" fill="white">
            <use xlink:href="#path-1"></use>
        </mask>
        <use id="Fill-1" fill="#00B956" xlink:href="#path-1"></use>
        <g id="Colors/Basic/Fresh-Asphalt" mask="url(#mask-2)">
            <g transform="translate(-2.000000, -2.000000)"></g>
        </g>
    </g>
</svg>